<svg width="66" height="14" viewBox="0 0 66 14" fill="none" xmlns="http://www.w3.org/2000/svg">
<path fill-rule="evenodd" clip-rule="evenodd" d="M62.0315 8.48479C62.1868 8.6205 62.2636 8.69728 62.36 8.77406C63.4046 9.66329 64.4492 10.5543 65.4741 11.4435C65.5313 11.5007 65.6295 11.5792 65.6866 11.6364C66.0741 12.0238 66.1116 12.5845 65.7455 12.9702C65.3973 13.3577 64.8563 13.4148 64.4492 13.0863C63.7135 12.4863 63.0171 11.8685 62.3029 11.2685C61.278 10.3972 60.2727 9.52758 59.246 8.65799C59.1692 8.58121 59.0531 8.50265 58.8978 8.38658C58.8978 8.59907 58.8781 8.73478 58.8781 8.87048C58.8781 11.3275 58.8781 9.49008 58.8781 11.9453C58.8781 12.0613 58.8781 12.1774 58.8781 12.2935C58.8388 12.8345 58.4335 13.222 57.8907 13.1827C57.3693 13.1631 57.0211 12.7756 57.0015 12.2345C57.0015 12.1185 57.0015 12.0024 57.0015 11.8864C57.0015 7.03132 57.0015 6.47064 57.0015 1.6156C57.0015 1.46026 57.0015 1.32455 57.0015 1.17099C57.0015 0.822798 57.0407 0.763873 57.3693 0.763873C57.8139 0.744231 58.2585 0.744231 58.7031 0.744231C59.7674 0.744231 60.8691 0.783514 61.9333 0.72459C63.7314 0.647809 65.7437 2.09771 65.9366 4.2065C66.1116 6.10281 64.8152 7.9009 62.8796 8.28838C62.6314 8.34909 62.36 8.42587 62.0315 8.48479ZM58.7638 6.9956C58.8799 7.01525 58.9567 7.01525 59.0156 7.01525C59.9048 7.01525 60.8137 7.01525 61.7047 7.01525C61.9565 7.01525 62.2279 6.9956 62.4779 6.89918C63.31 6.64741 63.9671 6.14566 64.1796 5.25465C64.5474 3.72618 63.4064 2.33341 61.8386 2.33341C60.9101 2.33341 60.0013 2.33341 59.0531 2.33341C58.937 2.33341 58.8406 2.35305 58.7246 2.35305C58.7638 3.89938 58.7638 5.42785 58.7638 6.9956Z" fill="white"/>
<path fill-rule="evenodd" clip-rule="evenodd" d="M20.8754 7.61319C19.0951 7.61319 17.3738 7.61319 15.6132 7.61319C15.6132 7.76854 15.5936 7.90424 15.5936 8.03816C15.5936 9.39165 15.5936 10.7273 15.5936 12.0808C15.5936 12.2557 15.5936 12.4289 15.5543 12.5647C15.4186 12.9718 14.9936 13.2218 14.5865 13.2039C14.1419 13.1646 13.774 12.8164 13.7169 12.3718C13.6973 12.2557 13.7169 12.1593 13.7169 12.0433C13.7169 7.2275 13.6973 6.64718 13.6973 1.84929C13.6973 1.65644 13.7169 1.46181 13.774 1.28861C13.9294 0.881493 14.3544 0.649365 14.799 0.70829C15.2043 0.765429 15.5525 1.11362 15.5918 1.54038C15.6114 1.67608 15.5918 1.79215 15.5918 1.92785C15.5918 4.40448 15.6114 2.64388 15.6114 5.11871C15.6114 5.27406 15.6311 5.40798 15.6311 5.54369C15.9596 5.62047 20.5254 5.62047 20.8736 5.54369C20.8736 5.42762 20.8932 5.31156 20.8932 5.17585C20.8932 4.092 20.8932 2.99028 20.8932 1.90643C20.8932 1.79036 20.8932 1.69394 20.8932 1.57788C20.9325 1.09398 21.3003 0.726146 21.7824 0.70829C22.2663 0.688649 22.711 1.05648 22.7681 1.54038C22.7877 1.65644 22.7681 1.75286 22.7681 1.86893C22.7681 5.25442 22.7681 8.62027 22.7681 12.0058C22.7681 12.1218 22.7681 12.2182 22.7681 12.3343C22.711 12.8182 22.2842 13.2039 21.8003 13.186C21.3164 13.1664 20.9289 12.7807 20.8718 12.2968C20.8718 12.1807 20.8718 12.0843 20.8718 11.9683C20.8718 10.6719 20.8718 9.33808 20.8718 8.04173C20.8754 7.92389 20.8754 7.78818 20.8754 7.61319Z" fill="white"/>
<path fill-rule="evenodd" clip-rule="evenodd" d="M1.77856 12.3343C1.27859 12.0433 0.242948 11.1951 0.0768877 10.613C-0.0391761 10.2648 -0.0588177 9.87736 0.269732 9.56845C0.637565 9.22026 1.1411 9.08455 1.64286 9.4131C2.12675 9.76129 2.35888 10.2059 2.76421 10.613C3.34453 11.1933 4.09805 11.5023 4.9105 11.5987C5.92829 11.7022 7.14428 11.6076 7.9853 10.9612C8.44955 10.438 8.58526 9.70415 8.02458 9.20062C7.75317 8.96849 7.40498 8.7935 7.05678 8.63994C6.20863 8.27211 5.3194 8.02034 4.42839 7.78821C3.47488 7.56144 2.3321 7.26682 1.46965 6.80256C0.792912 6.43473 0.405437 5.85441 0.289374 5.12053C-0.330228 0.661894 5.21941 0.0405062 8.31742 1.79218C8.70489 2.00466 9.07094 2.33321 9.40127 2.62426C9.65304 2.83675 9.84589 3.14566 9.94231 3.47599C10.0387 3.88311 9.84589 4.30808 9.34235 4.42415C8.91738 4.52057 8.5299 4.38486 8.22099 4.05631C8.16207 3.99917 8.10493 3.92061 8.06565 3.86347C6.99607 2.23858 4.00341 2.02073 2.66957 3.24387C2.32138 3.70812 2.18568 4.32772 2.64993 4.90804C3.41417 5.63121 5.91936 6.0544 7.00143 6.32045C7.65853 6.49365 8.29777 6.70792 8.89774 7.05611C9.6709 7.46323 10.2316 8.06141 10.4262 8.93278C10.6583 9.99699 10.4262 11.0023 9.59412 11.7754C7.54247 13.6146 4.10698 13.7467 1.77856 12.3343Z" fill="white"/>
<path fill-rule="evenodd" clip-rule="evenodd" d="M32.1496 0.767578C35.5673 0.767578 38.3385 3.53882 38.3385 6.95646C38.3385 6.97074 38.3385 6.98681 38.3385 7.0011C38.3367 7.30108 38.1207 7.55106 37.835 7.60641V7.61713H37.7154H37.1654H27.1303H26.7554H26.5804C26.2393 7.61713 25.9608 7.34036 25.959 6.99931C25.959 6.98502 25.959 6.96895 25.959 6.95467C25.9608 3.53882 28.732 0.767578 32.1496 0.767578ZM36.3154 5.55119C35.7298 3.81202 34.0852 2.56032 32.1496 2.56032C30.2141 2.56032 28.5695 3.81202 27.9839 5.55119H36.3154Z" fill="white"/>
<path fill-rule="evenodd" clip-rule="evenodd" d="M37.1137 10.6545C35.9853 12.1669 34.1818 13.1472 32.1498 13.1472C30.1178 13.1472 28.3143 12.1669 27.1858 10.6545C27.0751 10.5063 27.0376 10.3366 27.0751 10.1563C27.1126 9.97594 27.2144 9.83488 27.3733 9.74381L27.8519 9.46704C28.1233 9.30991 28.4661 9.37776 28.6572 9.62775C29.4607 10.6759 30.7249 11.3526 32.1498 11.3526C33.5729 11.3526 34.8389 10.6759 35.6424 9.62775C35.8335 9.37776 36.1745 9.30991 36.4477 9.46704L36.9263 9.74381C37.0852 9.83666 37.187 9.97594 37.2245 10.1563C37.262 10.3366 37.2245 10.5063 37.1137 10.6545Z" fill="white"/>
<path fill-rule="evenodd" clip-rule="evenodd" d="M47.6775 0.767578C51.0951 0.767578 53.8664 3.53882 53.8664 6.95646C53.8664 6.97074 53.8664 6.98681 53.8664 7.0011C53.8646 7.30108 53.6485 7.55106 53.3628 7.60641V7.61713H53.2432H52.6932H42.6582H42.2832H42.1082C41.7672 7.61713 41.4886 7.34036 41.4868 6.99931C41.4868 6.98502 41.4868 6.96895 41.4868 6.95467C41.4886 3.53882 44.2599 0.767578 47.6775 0.767578ZM51.8433 5.55119C51.2576 3.81202 49.6131 2.56032 47.6775 2.56032C45.7419 2.56032 44.0974 3.81202 43.5117 5.55119H51.8433Z" fill="white"/>
<path fill-rule="evenodd" clip-rule="evenodd" d="M52.6416 10.6545C51.5131 12.1669 49.7096 13.1472 47.6776 13.1472C45.6456 13.1472 43.8422 12.1669 42.7137 10.6545C42.603 10.5063 42.5655 10.3366 42.603 10.1563C42.6405 9.97594 42.7422 9.83488 42.9012 9.74381L43.3797 9.46704C43.6511 9.30991 43.9939 9.37776 44.185 9.62775C44.9885 10.6759 46.2527 11.3526 47.6776 11.3526C49.1007 11.3526 50.3667 10.6759 51.1703 9.62775C51.3613 9.37776 51.7024 9.30991 51.9756 9.46704L52.4541 9.74381C52.613 9.83666 52.7148 9.97594 52.7523 10.1563C52.7898 10.3366 52.7523 10.5063 52.6416 10.6545Z" fill="white"/>
</svg>
