<svg width="32" height="31" viewBox="0 0 32 31" fill="none" xmlns="http://www.w3.org/2000/svg">
<path d="M30.8966 0H7.72414C7.11422 0 6.62069 0.492037 6.62069 1.0989V5.49451H1.10345C0.493534 5.49451 0 5.98654 0 6.59341V29.6703C0 30.2772 0.493534 30.7692 1.10345 30.7692H25.3793C25.9892 30.7692 26.4828 30.2772 26.4828 29.6703V25.2747H30.8966C31.5065 25.2747 32 24.7827 32 24.1758V1.0989C32 0.492037 31.5065 0 30.8966 0ZM24.2759 28.5714H2.2069V7.69231H24.2759V28.5714ZM29.7931 23.0769H26.4828V6.59341C26.4828 5.98654 25.9892 5.49451 25.3793 5.49451H8.82759V2.1978H29.7931V23.0769Z" fill="black"/>
</svg>
