<svg width="47" height="52" viewBox="0 0 47 52" fill="none" xmlns="http://www.w3.org/2000/svg">
<g clip-path="url(#clip0_38_4816)">
<path fill-rule="evenodd" clip-rule="evenodd" d="M19.2642 26.4788H14.4971C14.4482 26.4788 14.4237 26.5035 14.4001 26.5528C14.2786 28.7368 13.8646 31.068 13.281 32.9823C13.281 33.007 13.281 33.0316 13.3055 33.0563C13.3299 33.081 13.3544 33.081 13.3788 33.081H15.0089C15.0578 33.081 15.0822 33.0563 15.0822 33.0316C15.5444 31.5589 15.9095 29.6454 16.0554 28.0255H17.6121V33.007C17.6121 33.0563 17.661 33.1048 17.7091 33.1048H19.2658C19.3147 33.1048 19.3628 33.0555 19.3628 33.007V26.5528C19.3628 26.5035 19.3139 26.4788 19.2658 26.4788H19.2642ZM39.4282 26.4788H37.8715C37.8226 26.4788 37.7745 26.5281 37.7745 26.5767V31.5581C37.4338 31.656 37.0932 31.7053 36.7044 31.7053C35.6831 31.7053 35.4394 31.3863 35.4394 30.0122V26.5767C35.4394 26.5273 35.3905 26.4788 35.3424 26.4788H33.8102C33.7613 26.4788 33.7132 26.5281 33.7132 26.5767V30.1841C33.7132 32.4421 34.4671 33.3005 36.3889 33.3005C37.4835 33.3005 38.724 33.0062 39.4535 32.7364C39.4779 32.7118 39.5024 32.6871 39.5024 32.6625V26.5767C39.5268 26.5027 39.4779 26.4788 39.429 26.4788H39.4282ZM6.44537 26.4788H4.8642C4.81531 26.4788 4.79086 26.5035 4.79086 26.5528C4.54797 27.5346 4.03695 29.2031 3.35559 30.9455L1.77442 26.5528C1.74998 26.5281 1.72553 26.5035 1.70108 26.5035H0.0970471C0.0726002 26.5035 0.0481532 26.5281 0.0237063 26.5528C-0.000740642 26.5775 -0.000740642 26.6021 0.0237063 26.6268L2.40768 33.2035C2.16479 33.719 1.94555 34.136 1.72632 34.529C1.55598 34.8234 1.41008 35.1178 1.26419 35.4121C1.23974 35.4368 1.23974 35.4615 1.26419 35.4861C1.28864 35.5108 1.31309 35.5355 1.33753 35.5355H3.06459C3.08904 35.5355 3.13793 35.5108 3.13793 35.4861C3.42972 34.922 3.79484 34.1368 4.13552 33.3268C5.15678 30.9216 5.95958 28.6644 6.5676 26.6029C6.5676 26.5783 6.5676 26.5536 6.54315 26.5289C6.49426 26.4796 6.46981 26.4796 6.44615 26.4796L6.44537 26.4788ZM12.1131 31.5581C12.1131 31.5335 12.0887 31.5088 12.0642 31.5088H11.9909C11.6021 31.656 10.8963 31.7538 10.4097 31.7538C9.31512 31.7538 8.8041 31.4595 8.8041 29.791C8.8041 28.4416 8.97444 27.8282 10.4097 27.8282C10.8229 27.8282 11.1881 27.8775 11.6746 28.0247C11.7235 28.0247 11.748 28.0247 11.7716 27.9754C11.942 27.6317 12.1604 27.2148 12.4041 26.6992V26.6252C12.4041 26.6005 12.3797 26.5759 12.3552 26.5759C11.7228 26.3794 10.9688 26.2568 10.2875 26.2568C8.02574 26.2568 7.0037 27.3365 7.0037 29.7664C7.0037 32.1962 8.02495 33.3244 10.2875 33.3244C10.8466 33.3244 11.9901 33.2019 12.5256 32.9807C12.5745 32.956 12.5989 32.9067 12.5745 32.8582L12.1123 31.5573L12.1131 31.5581ZM26.9264 26.4788H25.3452C25.2963 26.4788 25.2719 26.5035 25.2719 26.5528C25.029 27.5593 24.518 29.2031 23.8366 30.9455L22.2554 26.5528C22.231 26.5281 22.2065 26.5035 22.1821 26.5035H20.5765C20.552 26.5035 20.5276 26.5281 20.5031 26.5528C20.4787 26.5775 20.4787 26.6021 20.5031 26.6268L22.8871 33.2035C22.6442 33.719 22.425 34.136 22.2058 34.529C22.0354 34.8234 21.8895 35.1178 21.7436 35.4368C21.7192 35.4615 21.7192 35.4861 21.7436 35.5108C21.7681 35.5355 21.7925 35.5601 21.817 35.5601H23.544C23.5685 35.5601 23.6174 35.5355 23.6174 35.5108C23.9092 34.9467 24.2743 34.1614 24.615 33.3515C25.6126 30.9463 26.439 28.6891 27.047 26.6276C27.047 26.6029 27.047 26.5783 27.0226 26.5536C26.9737 26.4796 26.9493 26.4796 26.9256 26.4796L26.9264 26.4788ZM32.7637 26.4788H28.1669C28.118 26.4788 28.0699 26.5281 28.0699 26.5767V33.0308C28.0699 33.0802 28.1188 33.1287 28.1669 33.1287H29.7236C29.7725 33.1287 29.8206 33.0794 29.8206 33.0308V28.0494H32.229C32.2534 28.0494 32.3023 28.0247 32.3023 28.0001C32.4971 27.5585 32.6675 27.0922 32.8615 26.626V26.552C32.8126 26.478 32.7881 26.478 32.7645 26.478L32.7637 26.4788Z" fill="#EF4058"/>
<path fill-rule="evenodd" clip-rule="evenodd" d="M8.29461 16.564C6.05653 16.564 5.18117 17.5458 5.18117 20.0242C5.18117 22.5026 6.05653 23.5337 8.29461 23.5337C10.5327 23.5337 11.4325 22.5519 11.4325 20.0242C11.4325 17.4965 10.5571 16.564 8.29461 16.564ZM8.29461 22.0856C7.27336 22.0856 6.95713 21.8159 6.95713 20.0488C6.95713 18.1839 7.29781 18.012 8.29461 18.012C9.29142 18.012 9.65654 18.1839 9.65654 20.0488C9.65654 21.8159 9.34031 22.0856 8.29461 22.0856ZM17.6586 21.8159C17.6586 21.7913 17.6341 21.7666 17.6097 21.7666H17.5363C17.1476 21.9138 16.4418 22.0117 15.9552 22.0117C14.8606 22.0117 14.3496 21.7173 14.3496 20.0488C14.3496 18.6994 14.5199 18.086 15.9552 18.086C16.3684 18.086 16.7335 18.1353 17.2201 18.2825C17.269 18.2825 17.2935 18.2825 17.3171 18.2332C17.4874 17.8895 17.7059 17.4726 17.9496 16.957V16.883C17.9496 16.8584 17.9251 16.8337 17.9007 16.8337C17.2682 16.6372 16.5143 16.5146 15.8329 16.5146C13.5712 16.5146 12.5492 17.5943 12.5492 20.0242C12.5492 22.454 13.5704 23.5822 15.8329 23.5822C16.3921 23.5822 17.5356 23.4597 18.071 23.2385C18.1199 23.2139 18.1444 23.1645 18.1199 23.116L17.6578 21.8151L17.6586 21.8159ZM4.6946 16.7358H0.0969992C0.0481053 16.7358 0 16.7852 0 16.8337V23.2878C0 23.3372 0.0488939 23.3857 0.0969992 23.3857H1.65372C1.70261 23.3857 1.75072 23.3364 1.75072 23.2878V18.2817H4.13469C4.15913 18.2817 4.20803 18.2571 4.20803 18.2324C4.40282 17.7908 4.57316 17.3246 4.76715 16.8584V16.7844C4.74271 16.7597 4.71826 16.735 4.69381 16.735L4.6946 16.7358Z" fill="#1466AC"/>
<mask id="mask0_38_4816" style="mask-type:luminance" maskUnits="userSpaceOnUse" x="1" y="0" width="46" height="53">
<path d="M46.7007 32.4172V32.3193C46.7007 32.27 46.7007 32.1968 46.7252 32.1474C46.7985 31.2396 46.8466 30.1353 46.8955 28.8591V28.7612C46.92 27.902 46.9444 26.9695 46.9444 26.0131C46.9444 25.0568 46.92 24.1235 46.8955 23.265V23.1672C46.8466 21.9156 46.7985 20.7866 46.7252 19.8788C46.7252 19.8295 46.7252 19.7563 46.7007 19.707V19.6091C46.7007 19.5112 46.6763 19.4372 46.6763 19.3394V19.2415C46.6029 18.2844 46.5548 17.6956 46.5304 17.6463C46.5304 17.5484 46.5059 17.4498 46.5059 17.3766V17.3026C46.4815 17.1307 46.4571 16.9835 46.4089 16.8117C46.4089 16.787 46.4089 16.7623 46.3845 16.7377C45.9713 14.7502 44.8767 12.5662 43.514 10.9216C42.9785 10.2835 42.4194 9.71942 41.8358 9.27705C41.7869 9.22772 41.1063 8.73681 40.0362 7.97619C38.7957 7.11691 37.0197 5.91471 35.0009 4.73718C31.4009 2.60251 28.2149 1.10513 27.7772 0.933274C27.7528 0.933274 27.7528 0.90861 27.7528 0.90861C26.8041 0.491699 25.6606 0.197316 24.4201 0.0739936C24.1772 0.0493291 23.9335 0.0246645 23.6906 0.0246645C23.4477 0 23.2285 0 23.0093 0H22.6686C21.0149 0.0493291 19.4826 0.343712 18.2658 0.907814C18.0954 0.981808 14.8606 2.47839 11.188 4.66239L11.0421 4.73639C7.27176 6.96972 4.32866 9.17839 4.20722 9.27625C3.28296 9.96368 2.45571 10.8468 1.7018 11.9758C1.53146 12.2209 1.53146 12.859 2.26092 12.859H4.13387C4.93668 12.859 5.13147 12.3681 6.03127 11.7053C7.02887 10.9694 8.99882 9.49664 12.5988 7.3373C15.2012 5.79139 17.6341 4.56453 18.8257 3.99963C18.8501 3.99963 18.8746 3.97497 18.899 3.97497C18.899 3.97497 18.9235 3.97497 18.9235 3.9503C18.9235 3.9503 18.9479 3.9503 18.9479 3.92564C18.9724 3.92564 18.9968 3.90097 18.9968 3.90097C19.0213 3.90097 19.0457 3.87631 19.0702 3.87631C19.362 3.72912 19.5567 3.65512 19.5567 3.65512C20.384 3.28675 21.5511 3.04169 22.7916 3.01703H23.2782C23.6433 3.01703 24.0077 3.04169 24.3483 3.09102C25.1023 3.18889 25.7836 3.33608 26.3427 3.58193C26.3916 3.60659 26.4642 3.63126 26.5131 3.65592C26.5131 3.65592 26.5375 3.68058 26.6101 3.70525C27.1692 3.9503 30.1856 5.39835 33.4694 7.3373C35.4149 8.49096 37.142 9.64383 38.3344 10.4784C39.3801 11.2144 40.0125 11.6806 40.037 11.7053C40.4991 12.049 40.9612 12.5399 41.3989 13.0794C42.4935 14.5027 43.3933 16.4417 43.5392 17.9383C43.5392 17.9629 43.6125 18.5517 43.6851 19.5582C43.6851 19.6322 43.6851 19.6807 43.7095 19.7547V19.9019C43.7095 19.9998 43.734 20.0737 43.734 20.1716V20.2695C43.734 20.3188 43.734 20.392 43.7584 20.4413C43.7584 20.5639 43.7829 20.6864 43.7829 20.8097C43.7829 20.8837 43.7829 20.9569 43.8073 21.0309V21.0802C43.8073 21.1781 43.8073 21.2521 43.8318 21.3499V21.5465C43.9051 22.8227 43.9532 24.3439 43.9532 25.9391C43.9532 27.5344 43.9043 29.0556 43.8318 30.3318V30.5283C43.8318 30.6262 43.8318 30.7002 43.8073 30.798V30.8474C43.8073 30.9214 43.8073 30.9946 43.7829 31.0686C43.7829 31.1911 43.7584 31.3136 43.7584 31.4369C43.7584 31.5109 43.7584 31.5595 43.734 31.6088V31.7067C43.734 31.8045 43.7095 31.8785 43.7095 31.9764V32.1236C43.7095 32.1976 43.7095 32.2708 43.6851 32.3201C43.6117 33.3266 43.5392 33.94 43.5392 33.94C43.3933 35.4366 42.4935 37.3755 41.3989 38.7989C40.9612 39.363 40.4991 39.8292 40.037 40.173C40.0125 40.173 39.3801 40.6639 38.3344 41.3998C37.1428 42.2344 35.3913 43.3873 33.4694 44.541C30.1856 46.5038 27.1455 47.9272 26.6101 48.173L26.5131 48.2224C26.4642 48.247 26.3916 48.2717 26.3427 48.2963C25.7836 48.5175 25.1023 48.6886 24.3483 48.7872C24.0077 48.8366 23.6433 48.8612 23.2782 48.8612H22.7916C21.5511 48.8366 20.384 48.6162 19.5567 48.2231C19.5567 48.2231 19.3864 48.1492 19.0702 48.002C19.0457 47.9773 18.9968 47.9773 18.9732 47.9526C18.9495 47.928 18.9243 47.928 18.8998 47.9033C18.8754 47.9033 18.8754 47.8786 18.8509 47.8786C18.8265 47.8786 18.802 47.854 18.7776 47.854C18.7531 47.8293 18.7287 47.8293 18.6806 47.8046H18.6561C17.4157 47.3137 15.0806 46.1362 12.5996 44.6635C8.97516 42.5288 7.02965 41.0314 6.03206 40.2955C5.13226 39.6327 4.93747 39.1418 4.13466 39.1418H2.26171C1.53225 39.1418 1.53225 39.7799 1.70259 40.025C2.4565 41.154 3.28375 42.0371 4.208 42.7245C4.32945 42.8224 7.29699 45.0311 11.0429 47.2644C11.2377 47.3869 11.4317 47.5095 11.6509 47.6081C15.1295 49.6203 18.1207 50.9943 18.291 51.093C19.4826 51.6332 21.0393 51.9523 22.6938 52.0008H23.0345C23.2537 52.0008 23.4722 52.0008 23.6914 51.9761C23.9343 51.9761 24.178 51.9515 24.4209 51.9268C25.6614 51.8043 26.8285 51.5099 27.7536 51.0922C27.7536 51.0922 27.778 51.0922 27.778 51.0675C28.1912 50.871 31.4025 49.3744 34.978 47.2636C36.9969 46.0614 38.7728 44.8831 40.0133 44.0246C41.0835 43.264 41.7648 42.7731 41.8129 42.7237C42.3965 42.2822 42.9564 41.7173 43.4911 41.0792C44.853 39.4346 45.9476 37.2506 46.3616 35.2631C46.3616 35.2385 46.3616 35.2138 46.3861 35.1891C46.4105 35.0173 46.4594 34.8454 46.4831 34.6982V34.6242C46.5075 34.5264 46.5075 34.4277 46.5075 34.3545C46.5075 34.3052 46.5809 33.7164 46.6534 32.7593V32.6614C46.7023 32.5874 46.7023 32.5142 46.7023 32.4164L46.7007 32.4172Z" fill="white"/>
</mask>
<g mask="url(#mask0_38_4816)">
<path d="M46.9436 51.4756H1.53223V51.9999H46.9436V51.4756Z" fill="#1466AC"/>
<path d="M46.9436 51.2734H1.53223V51.5766H46.9436V51.2734Z" fill="#1466AC"/>
<path d="M46.9436 51.0713H1.53223V51.3744H46.9436V51.0713Z" fill="#1466AC"/>
<path d="M46.9436 50.8682H1.53223V51.1713H46.9436V50.8682Z" fill="#1466AC"/>
<path d="M46.9436 50.667H1.53223V50.9701H46.9436V50.667Z" fill="#1466AC"/>
<path d="M46.9436 50.4648H1.53223V50.768H46.9436V50.4648Z" fill="#1466AC"/>
<path d="M46.9436 50.2627H1.53223V50.5658H46.9436V50.2627Z" fill="#1466AC"/>
<path d="M46.9436 50.0605H1.53223V50.3637H46.9436V50.0605Z" fill="#1466AC"/>
<path d="M46.9436 49.8574H1.53223V50.1606H46.9436V49.8574Z" fill="#1466AC"/>
<path d="M46.9436 49.6553H1.53223V49.9584H46.9436V49.6553Z" fill="#1466AC"/>
<path d="M46.9436 49.4531H1.53223V49.7563H46.9436V49.4531Z" fill="#1466AC"/>
<path d="M46.9436 49.251H1.53223V49.5541H46.9436V49.251Z" fill="#1466AC"/>
<path d="M46.9436 49.0479H1.53223V49.351H46.9436V49.0479Z" fill="#1466AC"/>
<path d="M46.9436 48.8457H1.53223V49.1488H46.9436V48.8457Z" fill="#1466AC"/>
<path d="M46.9436 48.6436H1.53223V48.9467H46.9436V48.6436Z" fill="#1466AC"/>
<path d="M46.9436 48.4424H1.53223V48.7455H46.9436V48.4424Z" fill="#1466AC"/>
<path d="M46.9436 48.2402H1.53223V48.5434H46.9436V48.2402Z" fill="#1466AC"/>
<path d="M46.9436 48.0371H1.53223V48.3402H46.9436V48.0371Z" fill="#1466AC"/>
<path d="M46.9436 47.835H1.53223V48.1381H46.9436V47.835Z" fill="#1466AC"/>
<path d="M46.9436 47.6328H1.53223V47.9359H46.9436V47.6328Z" fill="#1466AC"/>
<path d="M46.9436 47.4307H1.53223V47.7338H46.9436V47.4307Z" fill="#1466AC"/>
<path d="M46.9436 47.2275H1.53223V47.5307H46.9436V47.2275Z" fill="#1466AC"/>
<path d="M46.9436 47.0254H1.53223V47.3285H46.9436V47.0254Z" fill="#1466AC"/>
<path d="M46.9436 46.8232H1.53223V47.1264H46.9436V46.8232Z" fill="#1466AC"/>
<path d="M46.9436 46.6211H1.53223V46.9242H46.9436V46.6211Z" fill="#1466AC"/>
<path d="M46.9436 46.4199H1.53223V46.7231H46.9436V46.4199Z" fill="#1466AC"/>
<path d="M46.9436 46.2168H1.53223V46.5199H46.9436V46.2168Z" fill="#1466AC"/>
<path d="M46.9436 46.0146H1.53223V46.3178H46.9436V46.0146Z" fill="#1466AC"/>
<path d="M46.9436 45.8125H1.53223V46.1156H46.9436V45.8125Z" fill="#1466AC"/>
<path d="M46.9436 45.6104H1.53223V45.9135H46.9436V45.6104Z" fill="#1466AC"/>
<path d="M46.9436 45.4082H1.53223V45.7113H46.9436V45.4082Z" fill="#1466AC"/>
<path d="M46.9436 45.2051H1.53223V45.5082H46.9436V45.2051Z" fill="#1466AC"/>
<path d="M46.9436 45.0029H1.53223V45.3061H46.9436V45.0029Z" fill="#1466AC"/>
<path d="M46.9436 44.8008H1.53223V45.1039H46.9436V44.8008Z" fill="#1466AC"/>
<path d="M46.9436 44.5986H1.53223V44.9018H46.9436V44.5986Z" fill="#1466AC"/>
<path d="M46.9436 44.3965H1.53223V44.6996H46.9436V44.3965Z" fill="#1466AC"/>
<path d="M46.9436 44.1943H1.53223V44.4975H46.9436V44.1943Z" fill="#1466AC"/>
<path d="M46.9436 43.9922H1.53223V44.2953H46.9436V43.9922Z" fill="#1466AC"/>
<path d="M46.9436 43.79H1.53223V44.0932H46.9436V43.79Z" fill="#1466AC"/>
<path d="M46.9436 43.5879H1.53223V43.891H46.9436V43.5879Z" fill="#1466AC"/>
<path d="M46.9436 43.3848H1.53223V43.6879H46.9436V43.3848Z" fill="#1466AC"/>
<path d="M46.9436 43.1826H1.53223V43.4858H46.9436V43.1826Z" fill="#1466AC"/>
<path d="M46.9436 42.9805H1.53223V43.2836H46.9436V42.9805Z" fill="#1466AC"/>
<path d="M46.9436 42.7783H1.53223V43.0815H46.9436V42.7783Z" fill="#1466AC"/>
<path d="M46.9436 42.5762H1.53223V42.8793H46.9436V42.5762Z" fill="#1466AC"/>
<path d="M46.9436 42.374H1.53223V42.6772H46.9436V42.374Z" fill="#1466AC"/>
<path d="M46.9436 42.1719H1.53223V42.475H46.9436V42.1719Z" fill="#1466AC"/>
<path d="M46.9436 41.9697H1.53223V42.2729H46.9436V41.9697Z" fill="#1466AC"/>
<path d="M46.9436 41.7676H1.53223V42.0707H46.9436V41.7676Z" fill="#1466AC"/>
<path d="M46.9436 41.5645H1.53223V41.8676H46.9436V41.5645Z" fill="#1466AC"/>
<path d="M46.9436 41.3623H1.53223V41.6654H46.9436V41.3623Z" fill="#1466AC"/>
<path d="M46.9436 41.1602H1.53223V41.4633H46.9436V41.1602Z" fill="#1466AC"/>
<path d="M46.9436 40.958H1.53223V41.2611H46.9436V40.958Z" fill="#1466AC"/>
<path d="M46.9436 40.7559H1.53223V41.059H46.9436V40.7559Z" fill="#1466AC"/>
<path d="M46.9436 40.5537H1.53223V40.8568H46.9436V40.5537Z" fill="#1466AC"/>
<path d="M46.9436 40.3516H1.53223V40.6547H46.9436V40.3516Z" fill="#1466AC"/>
<path d="M46.9436 40.1494H1.53223V40.4525H46.9436V40.1494Z" fill="#1466AC"/>
<path d="M46.9436 39.9473H1.53223V40.2504H46.9436V39.9473Z" fill="#1466AC"/>
<path d="M46.9436 39.7441H1.53223V40.0473H46.9436V39.7441Z" fill="#1466AC"/>
<path d="M46.9436 39.542H1.53223V39.8451H46.9436V39.542Z" fill="#1466AC"/>
<path d="M46.9436 39.3398H1.53223V39.643H46.9436V39.3398Z" fill="#1466AC"/>
<path d="M46.9436 39.1377H1.53223V39.4408H46.9436V39.1377Z" fill="#1466AC"/>
<path d="M46.9436 38.9355H1.53223V39.2387H46.9436V38.9355Z" fill="#1466AC"/>
<path d="M46.9436 38.7324H1.53223V39.0356H46.9436V38.7324Z" fill="#1466AC"/>
<path d="M46.9436 38.5312H1.53223V38.8344H46.9436V38.5312Z" fill="#1466AC"/>
<path d="M46.9436 38.3291H1.53223V38.6322H46.9436V38.3291Z" fill="#1466AC"/>
<path d="M46.9436 38.127H1.53223V38.4301H46.9436V38.127Z" fill="#1466AC"/>
<path d="M46.9436 37.9248H1.53223V38.2279H46.9436V37.9248Z" fill="#1466AC"/>
<path d="M46.9436 37.7217H1.53223V38.0248H46.9436V37.7217Z" fill="#1466AC"/>
<path d="M46.9436 37.5195H1.53223V37.8227H46.9436V37.5195Z" fill="#1466AC"/>
<path d="M46.9436 37.3174H1.53223V37.6205H46.9436V37.3174Z" fill="#1466AC"/>
<path d="M46.9436 37.1152H1.53223V37.4184H46.9436V37.1152Z" fill="#1466AC"/>
<path d="M46.9436 36.9121H1.53223V37.2152H46.9436V36.9121Z" fill="#1466AC"/>
<path d="M46.9436 36.71H1.53223V37.0131H46.9436V36.71Z" fill="#1466AC"/>
<path d="M46.9436 36.5078H1.53223V36.8109H46.9436V36.5078Z" fill="#1466AC"/>
<path d="M46.9436 36.3066H1.53223V36.6098H46.9436V36.3066Z" fill="#1466AC"/>
<path d="M46.9436 36.1045H1.53223V36.4076H46.9436V36.1045Z" fill="#1466AC"/>
<path d="M46.9436 35.9014H1.53223V36.2045H46.9436V35.9014Z" fill="#1466AC"/>
<path d="M46.9436 35.6992H1.53223V36.0024H46.9436V35.6992Z" fill="#1466AC"/>
<path d="M46.9436 35.4971H1.53223V35.8002H46.9436V35.4971Z" fill="#1466AC"/>
<path d="M46.9436 35.2949H1.53223V35.5981H46.9436V35.2949Z" fill="#1466AC"/>
<path d="M46.9436 35.0918H1.53223V35.3949H46.9436V35.0918Z" fill="#1466AC"/>
<path d="M46.9436 34.8896H1.53223V35.1928H46.9436V34.8896Z" fill="#1466AC"/>
<path d="M46.9436 34.6875H1.53223V34.9906H46.9436V34.6875Z" fill="#1466AC"/>
<path d="M46.9436 34.4854H1.53223V34.7885H46.9436V34.4854Z" fill="#1466AC"/>
<path d="M46.9436 34.2842H1.53223V34.5873H46.9436V34.2842Z" fill="#1466AC"/>
<path d="M46.9436 34.0811H1.53223V34.3842H46.9436V34.0811Z" fill="#1466AC"/>
<path d="M46.9436 33.8789H1.53223V34.182H46.9436V33.8789Z" fill="#1466AC"/>
<path d="M46.9436 33.6768H1.53223V33.9799H46.9436V33.6768Z" fill="#1466AC"/>
<path d="M46.9436 33.4746H1.53223V33.7777H46.9436V33.4746Z" fill="#1466AC"/>
<path d="M46.9436 33.2725H1.53223V33.5756H46.9436V33.2725Z" fill="#1466AC"/>
<path d="M46.9436 33.0693H1.53223V33.3725H46.9436V33.0693Z" fill="#1466AC"/>
<path d="M46.9436 32.8672H1.53223V33.1703H46.9436V32.8672Z" fill="#1466AC"/>
<path d="M46.9436 32.665H1.53223V32.9682H46.9436V32.665Z" fill="#1466AC"/>
<path d="M46.9436 32.4629H1.53223V32.766H46.9436V32.4629Z" fill="#1466AC"/>
<path d="M46.9436 32.2607H1.53223V32.5639H46.9436V32.2607Z" fill="#1466AC"/>
<path d="M46.9436 32.0586H1.53223V32.3617H46.9436V32.0586Z" fill="#1466AC"/>
<path d="M46.9436 31.8564H1.53223V32.1596H46.9436V31.8564Z" fill="#1466AC"/>
<path d="M46.9436 31.6543H1.53223V31.9574H46.9436V31.6543Z" fill="#1466AC"/>
<path d="M46.9436 31.4521H1.53223V31.7553H46.9436V31.4521Z" fill="#1466AC"/>
<path d="M46.9436 31.249H1.53223V31.5522H46.9436V31.249Z" fill="#1466AC"/>
<path d="M46.9436 31.0469H1.53223V31.35H46.9436V31.0469Z" fill="#1466AC"/>
<path d="M46.9436 30.8447H1.53223V31.1479H46.9436V30.8447Z" fill="#1466AC"/>
<path d="M46.9436 30.6426H1.53223V30.9457H46.9436V30.6426Z" fill="#1765AB"/>
<path d="M46.9436 30.4404H1.53223V30.7436H46.9436V30.4404Z" fill="#1B65A9"/>
<path d="M46.9436 30.2383H1.53223V30.5414H46.9436V30.2383Z" fill="#1E64A8"/>
<path d="M46.9436 30.0361H1.53223V30.3393H46.9436V30.0361Z" fill="#2164A7"/>
<path d="M46.9436 29.834H1.53223V30.1371H46.9436V29.834Z" fill="#2563A6"/>
<path d="M46.9436 29.6318H1.53223V29.935H46.9436V29.6318Z" fill="#2863A4"/>
<path d="M46.9436 29.4287H1.53223V29.7318H46.9436V29.4287Z" fill="#2B62A3"/>
<path d="M46.9436 29.2266H1.53223V29.5297H46.9436V29.2266Z" fill="#2E61A2"/>
<path d="M46.9436 29.0244H1.53223V29.3275H46.9436V29.0244Z" fill="#3261A1"/>
<path d="M46.9436 28.8223H1.53223V29.1254H46.9436V28.8223Z" fill="#35609F"/>
<path d="M46.9436 28.6201H1.53223V28.9233H46.9436V28.6201Z" fill="#38609E"/>
<path d="M46.9436 28.418H1.53223V28.7211H46.9436V28.418Z" fill="#3C5F9D"/>
<path d="M46.9436 28.2158H1.53223V28.519H46.9436V28.2158Z" fill="#3F5F9C"/>
<path d="M46.9436 28.0137H1.53223V28.3168H46.9436V28.0137Z" fill="#425E9A"/>
<path d="M46.9436 27.8115H1.53223V28.1147H46.9436V27.8115Z" fill="#465D99"/>
<path d="M46.9436 27.6094H1.53223V27.9125H46.9436V27.6094Z" fill="#495D98"/>
<path d="M46.9436 27.4062H1.53223V27.7094H46.9436V27.4062Z" fill="#4C5C96"/>
<path d="M46.9436 27.2041H1.53223V27.5072H46.9436V27.2041Z" fill="#4F5C95"/>
<path d="M46.9436 27.002H1.53223V27.3051H46.9436V27.002Z" fill="#535B94"/>
<path d="M46.9436 26.7998H1.53223V27.1029H46.9436V26.7998Z" fill="#565B93"/>
<path d="M46.9436 26.5967H1.53223V26.8998H46.9436V26.5967Z" fill="#595A91"/>
<path d="M46.9436 26.3955H1.53223V26.6986H46.9436V26.3955Z" fill="#5D5990"/>
<path d="M46.9436 26.1934H1.53223V26.4965H46.9436V26.1934Z" fill="#60598F"/>
<path d="M46.9436 25.9912H1.53223V26.2943H46.9436V25.9912Z" fill="#63588E"/>
<path d="M46.9436 25.7891H1.53223V26.0922H46.9436V25.7891Z" fill="#67588C"/>
<path d="M46.9436 25.5859H1.53223V25.8891H46.9436V25.5859Z" fill="#6A578B"/>
<path d="M46.9436 25.3838H1.53223V25.6869H46.9436V25.3838Z" fill="#6D578A"/>
<path d="M46.9436 25.1816H1.53223V25.4848H46.9436V25.1816Z" fill="#705689"/>
<path d="M46.9436 24.9795H1.53223V25.2826H46.9436V24.9795Z" fill="#745587"/>
<path d="M46.9436 24.7764H1.53223V25.0795H46.9436V24.7764Z" fill="#775586"/>
<path d="M46.9436 24.5742H1.53223V24.8774H46.9436V24.5742Z" fill="#7A5485"/>
<path d="M46.9436 24.3721H1.53223V24.6752H46.9436V24.3721Z" fill="#7E5483"/>
<path d="M46.9436 24.1709H1.53223V24.474H46.9436V24.1709Z" fill="#815382"/>
<path d="M46.9436 23.9688H1.53223V24.2719H46.9436V23.9688Z" fill="#845381"/>
<path d="M46.9436 23.7656H1.53223V24.0688H46.9436V23.7656Z" fill="#885280"/>
<path d="M46.9436 23.5635H1.53223V23.8666H46.9436V23.5635Z" fill="#8B517E"/>
<path d="M46.9436 23.3613H1.53223V23.6645H46.9436V23.3613Z" fill="#8E517D"/>
<path d="M46.9436 23.1592H1.53223V23.4623H46.9436V23.1592Z" fill="#92507C"/>
<path d="M46.9436 22.957H1.53223V23.2602H46.9436V22.957Z" fill="#95507B"/>
<path d="M46.9436 22.7539H1.53223V23.057H46.9436V22.7539Z" fill="#984F79"/>
<path d="M46.9436 22.5518H1.53223V22.8549H46.9436V22.5518Z" fill="#9B4F78"/>
<path d="M46.9436 22.3496H1.53223V22.6527H46.9436V22.3496Z" fill="#9F4E77"/>
<path d="M46.9436 22.1484H1.53223V22.4516H46.9436V22.1484Z" fill="#A24D76"/>
<path d="M46.9436 21.9453H1.53223V22.2484H46.9436V21.9453Z" fill="#A54D74"/>
<path d="M46.9436 21.7432H1.53223V22.0463H46.9436V21.7432Z" fill="#A94C73"/>
<path d="M46.9436 21.541H1.53223V21.8442H46.9436V21.541Z" fill="#AC4C72"/>
<path d="M46.9436 21.3389H1.53223V21.642H46.9436V21.3389Z" fill="#AF4B70"/>
<path d="M46.9436 21.1367H1.53223V21.4399H46.9436V21.1367Z" fill="#B34A6F"/>
<path d="M46.9436 20.9336H1.53223V21.2367H46.9436V20.9336Z" fill="#B64A6E"/>
<path d="M46.9436 20.7314H1.53223V21.0346H46.9436V20.7314Z" fill="#B9496D"/>
<path d="M46.9436 20.5293H1.53223V20.8324H46.9436V20.5293Z" fill="#BC496B"/>
<path d="M46.9436 20.3271H1.53223V20.6303H46.9436V20.3271Z" fill="#C0486A"/>
<path d="M46.9436 20.125H1.53223V20.4281H46.9436V20.125Z" fill="#C34869"/>
<path d="M46.9436 19.9229H1.53223V20.226H46.9436V19.9229Z" fill="#C64768"/>
<path d="M46.9436 19.7207H1.53223V20.0238H46.9436V19.7207Z" fill="#CA4666"/>
<path d="M46.9436 19.5186H1.53223V19.8217H46.9436V19.5186Z" fill="#CD4665"/>
<path d="M46.9436 19.3164H1.53223V19.6195H46.9436V19.3164Z" fill="#D04564"/>
<path d="M46.9436 19.1133H1.53223V19.4164H46.9436V19.1133Z" fill="#D44563"/>
<path d="M46.9436 18.9111H1.53223V19.2143H46.9436V18.9111Z" fill="#D74461"/>
<path d="M46.9436 18.709H1.53223V19.0121H46.9436V18.709Z" fill="#DA4460"/>
<path d="M46.9436 18.5068H1.53223V18.81H46.9436V18.5068Z" fill="#DD435F"/>
<path d="M46.9436 18.3047H1.53223V18.6078H46.9436V18.3047Z" fill="#E1425D"/>
<path d="M46.9436 18.1025H1.53223V18.4057H46.9436V18.1025Z" fill="#E4425C"/>
<path d="M46.9436 17.9004H1.53223V18.2035H46.9436V17.9004Z" fill="#E7415B"/>
<path d="M46.9436 17.6982H1.53223V18.0014H46.9436V17.6982Z" fill="#EB415A"/>
<path d="M46.9436 17.4961H1.53223V17.7992H46.9436V17.4961Z" fill="#EE4058"/>
<path d="M46.9436 17.293H1.53223V17.5961H46.9436V17.293Z" fill="#EF4058"/>
<path d="M46.9436 17.0908H1.53223V17.394H46.9436V17.0908Z" fill="#EF4058"/>
<path d="M46.9436 16.8887H1.53223V17.1918H46.9436V16.8887Z" fill="#EF4058"/>
<path d="M46.9436 16.6865H1.53223V16.9897H46.9436V16.6865Z" fill="#EF4058"/>
<path d="M46.9436 16.4844H1.53223V16.7875H46.9436V16.4844Z" fill="#EF4058"/>
<path d="M46.9436 16.2822H1.53223V16.5854H46.9436V16.2822Z" fill="#EF4058"/>
<path d="M46.9436 16.0801H1.53223V16.3832H46.9436V16.0801Z" fill="#EF4058"/>
<path d="M46.9436 15.8779H1.53223V16.1811H46.9436V15.8779Z" fill="#EF4058"/>
<path d="M46.9436 15.6758H1.53223V15.9789H46.9436V15.6758Z" fill="#EF4058"/>
<path d="M46.9436 15.4736H1.53223V15.7768H46.9436V15.4736Z" fill="#EF4058"/>
<path d="M46.9436 15.2705H1.53223V15.5736H46.9436V15.2705Z" fill="#EF4058"/>
<path d="M46.9436 15.0684H1.53223V15.3715H46.9436V15.0684Z" fill="#EF4058"/>
<path d="M46.9436 14.8662H1.53223V15.1693H46.9436V14.8662Z" fill="#EF4058"/>
<path d="M46.9436 14.6641H1.53223V14.9672H46.9436V14.6641Z" fill="#EF4058"/>
<path d="M46.9436 14.4609H1.53223V14.7641H46.9436V14.4609Z" fill="#EF4058"/>
<path d="M46.9436 14.2598H1.53223V14.5629H46.9436V14.2598Z" fill="#EF4058"/>
<path d="M46.9436 14.0576H1.53223V14.3608H46.9436V14.0576Z" fill="#EF4058"/>
<path d="M46.9436 13.8555H1.53223V14.1586H46.9436V13.8555Z" fill="#EF4058"/>
<path d="M46.9436 13.6533H1.53223V13.9565H46.9436V13.6533Z" fill="#EF4058"/>
<path d="M46.9436 13.4502H1.53223V13.7533H46.9436V13.4502Z" fill="#EF4058"/>
<path d="M46.9436 13.248H1.53223V13.5512H46.9436V13.248Z" fill="#EF4058"/>
<path d="M46.9436 13.0459H1.53223V13.349H46.9436V13.0459Z" fill="#EF4058"/>
<path d="M46.9436 12.8438H1.53223V13.1469H46.9436V12.8438Z" fill="#EF4058"/>
<path d="M46.9436 12.6416H1.53223V12.9447H46.9436V12.6416Z" fill="#EF4058"/>
<path d="M46.9436 12.4385H1.53223V12.7416H46.9436V12.4385Z" fill="#EF4058"/>
<path d="M46.9436 12.2363H1.53223V12.5395H46.9436V12.2363Z" fill="#EF4058"/>
<path d="M46.9436 12.0352H1.53223V12.3383H46.9436V12.0352Z" fill="#EF4058"/>
<path d="M46.9436 11.833H1.53223V12.1361H46.9436V11.833Z" fill="#EF4058"/>
<path d="M46.9436 11.6299H1.53223V11.933H46.9436V11.6299Z" fill="#EF4058"/>
<path d="M46.9436 11.4277H1.53223V11.7309H46.9436V11.4277Z" fill="#EF4058"/>
<path d="M46.9436 11.2256H1.53223V11.5287H46.9436V11.2256Z" fill="#EF4058"/>
<path d="M46.9436 11.0234H1.53223V11.3266H46.9436V11.0234Z" fill="#EF4058"/>
<path d="M46.9436 10.8213H1.53223V11.1244H46.9436V10.8213Z" fill="#EF4058"/>
<path d="M46.9436 10.6182H1.53223V10.9213H46.9436V10.6182Z" fill="#EF4058"/>
<path d="M46.9436 10.416H1.53223V10.7192H46.9436V10.416Z" fill="#EF4058"/>
<path d="M46.9436 10.2139H1.53223V10.517H46.9436V10.2139Z" fill="#EF4058"/>
<path d="M46.9436 10.0127H1.53223V10.3158H46.9436V10.0127Z" fill="#EF4058"/>
<path d="M46.9436 9.81055H1.53223V10.1137H46.9436V9.81055Z" fill="#EF4058"/>
<path d="M46.9436 9.60742H1.53223V9.91056H46.9436V9.60742Z" fill="#EF4058"/>
<path d="M46.9436 9.40527H1.53223V9.70841H46.9436V9.40527Z" fill="#EF4058"/>
<path d="M46.9436 9.20312H1.53223V9.50626H46.9436V9.20312Z" fill="#EF4058"/>
<path d="M46.9436 9.00098H1.53223V9.30411H46.9436V9.00098Z" fill="#EF4058"/>
<path d="M46.9436 8.79785H1.53223V9.10099H46.9436V8.79785Z" fill="#EF4058"/>
<path d="M46.9436 8.5957H1.53223V8.89884H46.9436V8.5957Z" fill="#EF4058"/>
<path d="M46.9436 8.39355H1.53223V8.69669H46.9436V8.39355Z" fill="#EF4058"/>
<path d="M46.9436 8.19141H1.53223V8.49454H46.9436V8.19141Z" fill="#EF4058"/>
<path d="M46.9436 7.98926H1.53223V8.29239H46.9436V7.98926Z" fill="#EF4058"/>
<path d="M46.9436 7.78711H1.53223V8.09024H46.9436V7.78711Z" fill="#EF4058"/>
<path d="M46.9436 7.58496H1.53223V7.8881H46.9436V7.58496Z" fill="#EF4058"/>
<path d="M46.9436 7.38281H1.53223V7.68595H46.9436V7.38281Z" fill="#EF4058"/>
<path d="M46.9436 7.18066H1.53223V7.4838H46.9436V7.18066Z" fill="#EF4058"/>
<path d="M46.9436 6.97754H1.53223V7.28067H46.9436V6.97754Z" fill="#EF4058"/>
<path d="M46.9436 6.77539H1.53223V7.07853H46.9436V6.77539Z" fill="#EF4058"/>
<path d="M46.9436 6.57324H1.53223V6.87638H46.9436V6.57324Z" fill="#EF4058"/>
<path d="M46.9436 6.37109H1.53223V6.67423H46.9436V6.37109Z" fill="#EF4058"/>
<path d="M46.9436 6.16895H1.53223V6.47208H46.9436V6.16895Z" fill="#EF4058"/>
<path d="M46.9436 5.9668H1.53223V6.26993H46.9436V5.9668Z" fill="#EF4058"/>
<path d="M46.9436 5.76465H1.53223V6.06778H46.9436V5.76465Z" fill="#EF4058"/>
<path d="M46.9436 5.5625H1.53223V5.86563H46.9436V5.5625Z" fill="#EF4058"/>
<path d="M46.9436 5.36035H1.53223V5.66349H46.9436V5.36035Z" fill="#EF4058"/>
<path d="M46.9436 5.1582H1.53223V5.46134H46.9436V5.1582Z" fill="#EF4058"/>
<path d="M46.9436 4.95508H1.53223V5.25821H46.9436V4.95508Z" fill="#EF4058"/>
<path d="M46.9436 4.75293H1.53223V5.05606H46.9436V4.75293Z" fill="#EF4058"/>
<path d="M46.9436 4.55078H1.53223V4.85392H46.9436V4.55078Z" fill="#EF4058"/>
<path d="M46.9436 4.34863H1.53223V4.65177H46.9436V4.34863Z" fill="#EF4058"/>
<path d="M46.9436 4.14648H1.53223V4.44962H46.9436V4.14648Z" fill="#EF4058"/>
<path d="M46.9436 3.94434H1.53223V4.24747H46.9436V3.94434Z" fill="#EF4058"/>
<path d="M46.9436 3.74219H1.53223V4.04532H46.9436V3.74219Z" fill="#EF4058"/>
<path d="M46.9436 3.54004H1.53223V3.84317H46.9436V3.54004Z" fill="#EF4058"/>
<path d="M46.9436 3.33789H1.53223V3.64103H46.9436V3.33789Z" fill="#EF4058"/>
<path d="M46.9436 3.13477H1.53223V3.4379H46.9436V3.13477Z" fill="#EF4058"/>
<path d="M46.9436 2.93262H1.53223V3.23575H46.9436V2.93262Z" fill="#EF4058"/>
<path d="M46.9436 2.73047H1.53223V3.0336H46.9436V2.73047Z" fill="#EF4058"/>
<path d="M46.9436 2.52832H1.53223V2.83146H46.9436V2.52832Z" fill="#EF4058"/>
<path d="M46.9436 2.32617H1.53223V2.62931H46.9436V2.32617Z" fill="#EF4058"/>
<path d="M46.9436 2.12402H1.53223V2.42716H46.9436V2.12402Z" fill="#EF4058"/>
<path d="M46.9436 1.92188H1.53223V2.22501H46.9436V1.92188Z" fill="#EF4058"/>
<path d="M46.9436 1.71973H1.53223V2.02286H46.9436V1.71973Z" fill="#EF4058"/>
<path d="M46.9436 1.51758H1.53223V1.82071H46.9436V1.51758Z" fill="#EF4058"/>
<path d="M46.9436 1.31445H1.53223V1.61759H46.9436V1.31445Z" fill="#EF4058"/>
<path d="M46.9436 1.1123H1.53223V1.41544H46.9436V1.1123Z" fill="#EF4058"/>
<path d="M46.9436 0.910156H1.53223V1.21329H46.9436V0.910156Z" fill="#EF4058"/>
<path d="M46.9436 0.708008H1.53223V1.01114H46.9436V0.708008Z" fill="#EF4058"/>
<path d="M46.9436 0.505859H1.53223V0.808994H46.9436V0.505859Z" fill="#EF4058"/>
<path d="M46.9436 0.302734H1.53223V0.605869H46.9436V0.302734Z" fill="#EF4058"/>
<path d="M46.9436 0.100586H1.53223V0.403721H46.9436V0.100586Z" fill="#EF4058"/>
<path d="M46.9436 0H1.53223V0.20209H46.9436V0Z" fill="#EF4058"/>
</g>
</g>
<defs>
<clipPath id="clip0_38_4816">
<rect width="46.9444" height="52" fill="white"/>
</clipPath>
</defs>
</svg>
