<svg width="47" height="38" viewBox="0 0 47 38" fill="none" xmlns="http://www.w3.org/2000/svg">
<path d="M45.9998 28.465H1.08961C0.851392 28.465 0.622931 28.3732 0.454484 28.2098C0.286038 28.0464 0.191406 27.8247 0.191406 27.5936V0.871457C0.191406 0.640332 0.286038 0.418674 0.454484 0.255244C0.622931 0.0918141 0.851392 0 1.08961 0H45.9998C46.2381 0 46.4665 0.0918141 46.635 0.255244C46.8034 0.418674 46.8981 0.640332 46.8981 0.871457V27.5936C46.8981 27.8247 46.8034 28.0464 46.635 28.2098C46.4665 28.3732 46.2381 28.465 45.9998 28.465ZM1.98782 26.7221H45.1016V1.74291H1.98782V26.7221Z" fill="#B5E5FB"/>
<path d="M33.7108 37.8383H13.3789C13.1943 37.8384 13.0143 37.7833 12.8632 37.6805C12.7121 37.5778 12.5972 37.4324 12.5343 37.2641C12.4714 37.0958 12.4634 36.9128 12.5115 36.7399C12.5595 36.5671 12.6613 36.4128 12.8029 36.298C18.0237 32.0644 16.4243 27.9555 16.4075 27.9146C16.364 27.8082 16.3425 27.6946 16.3443 27.5801C16.3461 27.4657 16.3711 27.3527 16.4179 27.2476C16.4647 27.1425 16.5323 27.0474 16.617 26.9677C16.7016 26.888 16.8017 26.8253 16.9113 26.7831C17.021 26.7409 17.1381 26.7201 17.2561 26.7218C17.3741 26.7235 17.4905 26.7478 17.5988 26.7932C17.7071 26.8385 17.8051 26.9042 17.8873 26.9863C17.9694 27.0685 18.0341 27.1655 18.0776 27.2719C18.1006 27.3264 18.639 28.6777 18.3684 30.6385C18.173 32.0475 17.5145 34.0252 15.6058 36.0954H31.4839C29.5752 34.0257 28.9167 32.0475 28.7213 30.6385C28.4496 28.6777 28.9891 27.328 29.0121 27.2719L30.6822 27.9146V27.9086C30.6783 27.919 30.2775 28.9669 30.5138 30.5039C30.8327 32.5785 32.1014 34.5279 34.2846 36.298C34.4262 36.4128 34.5279 36.5671 34.576 36.7399C34.624 36.9128 34.6161 37.0958 34.5531 37.2641C34.4902 37.4324 34.3754 37.5778 34.2243 37.6805C34.0732 37.7833 33.8931 37.8384 33.7086 37.8383H33.7108Z" fill="#B5E5FB"/>
<path d="M34.1151 13.7908C33.9319 13.7908 33.7531 13.7365 33.6026 13.6351C33.4522 13.5337 33.3373 13.3901 33.2733 13.2236C33.2094 13.057 33.1994 12.8755 33.2448 12.7033C33.2902 12.5311 33.3888 12.3765 33.5273 12.2603L34.7427 11.2396C34.9229 11.0884 35.1577 11.0129 35.3953 11.0296C35.6329 11.0464 35.8539 11.154 36.0097 11.3289C36.1655 11.5038 36.2434 11.7315 36.2261 11.962C36.2088 12.1926 36.0979 12.407 35.9177 12.5582L34.7023 13.5816C34.5387 13.7173 34.3303 13.7916 34.1151 13.7908Z" fill="#B5E5FB"/>
<path d="M29.7151 9.90219C29.5518 9.9021 29.3917 9.85885 29.2519 9.77708C29.1121 9.69531 28.9979 9.57812 28.9216 9.43811C28.8453 9.29809 28.8097 9.14054 28.8188 8.9824C28.8278 8.82425 28.8811 8.67149 28.973 8.54054L29.8762 7.25241C30.0102 7.0613 30.217 6.92967 30.451 6.88646C30.685 6.84325 30.9272 6.89202 31.1242 7.02202C31.3211 7.15203 31.4568 7.35263 31.5013 7.5797C31.5459 7.80676 31.4956 8.04169 31.3616 8.2328L30.4584 9.52147C30.3759 9.63893 30.265 9.73502 30.1355 9.80138C30.0059 9.86774 29.8616 9.90235 29.7151 9.90219Z" fill="#B5E5FB"/>
<path d="M23.5216 23.9673C21.8324 23.9673 20.0888 23.5076 18.3401 22.6013C16.976 21.8932 15.604 20.9129 14.2617 19.6879C11.9982 17.6182 10.6043 15.5763 10.5459 15.4902C10.4497 15.3481 10.3984 15.1818 10.3984 15.0117C10.3984 14.8417 10.4497 14.6754 10.5459 14.5332C10.6021 14.4472 11.9982 12.4025 14.2617 10.335C15.604 9.10898 16.976 8.12859 18.3401 7.42162C20.0888 6.5153 21.8324 6.05615 23.5216 6.05615C25.2108 6.05615 26.9556 6.5153 28.7093 7.42162C30.0768 8.12967 31.4539 9.11006 32.8023 10.3334C35.0765 12.4004 36.4816 14.4445 36.5405 14.5305C36.638 14.6732 36.6899 14.8406 36.6899 15.0117C36.6899 15.1829 36.638 15.3502 36.5405 15.4929C36.4844 15.579 35.0765 17.6226 32.8023 19.6895C31.455 20.9156 30.0768 21.8954 28.7093 22.6018C26.9556 23.5076 25.2103 23.9673 23.5216 23.9673ZM12.3962 15.0115C13.6683 16.6934 18.2531 22.2244 23.5216 22.2244C28.7986 22.2244 33.4075 16.6977 34.6891 15.012C33.4053 13.3274 28.7896 7.79907 23.5216 7.79907C18.2537 7.79907 13.6683 13.3295 12.3962 15.0115Z" fill="#B5E5FB"/>
<path d="M23.5452 19.263C22.6785 19.263 21.8313 19.0136 21.1106 18.5465C20.39 18.0793 19.8283 17.4153 19.4967 16.6384C19.165 15.8615 19.0782 15.0067 19.2473 14.1819C19.4164 13.3572 19.8337 12.5996 20.4466 12.005C21.0594 11.4104 21.8402 11.0055 22.6903 10.8415C23.5403 10.6774 24.4214 10.7616 25.2222 11.0834C26.0229 11.4052 26.7073 11.9501 27.1888 12.6493C27.6703 13.3485 27.9273 14.1705 27.9273 15.0114C27.926 16.1386 27.4639 17.2192 26.6424 18.0163C25.8208 18.8134 24.707 19.2617 23.5452 19.263ZM23.5452 12.5032C23.0338 12.5032 22.5338 12.6504 22.1086 12.9261C21.6834 13.2017 21.352 13.5936 21.1563 14.052C20.9606 14.5105 20.9094 15.0149 21.0092 15.5016C21.109 15.9882 21.3554 16.4352 21.717 16.786C22.0787 17.1369 22.5395 17.3758 23.0411 17.4725C23.5427 17.5692 24.0626 17.5195 24.5351 17.3295C25.0076 17.1396 25.4114 16.8179 25.6954 16.4053C25.9795 15.9927 26.131 15.5076 26.1309 15.0114C26.13 14.3464 25.8573 13.7088 25.3726 13.2386C24.8878 12.7684 24.2307 12.5039 23.5452 12.5032Z" fill="#B5E5FB"/>
<path d="M23.5447 7.79874C23.4265 7.79874 23.3095 7.77611 23.2003 7.73215C23.0912 7.68818 22.992 7.62375 22.9086 7.54254C22.8251 7.46133 22.759 7.36494 22.7141 7.25889C22.6691 7.15285 22.6461 7.03923 22.6465 6.92456L22.651 5.36629C22.6517 5.13564 22.7467 4.91468 22.915 4.75184C23.0834 4.589 23.3115 4.49756 23.5492 4.49756H23.552C23.7902 4.49756 24.0187 4.58937 24.1871 4.7528C24.3556 4.91623 24.4502 5.13789 24.4502 5.36902L24.4429 6.92947C24.4423 7.16021 24.3474 7.38131 24.179 7.54427C24.0106 7.70723 23.7825 7.79874 23.5447 7.79874Z" fill="#B5E5FB"/>
<path d="M17.3651 9.88607C17.2185 9.88626 17.074 9.85161 16.9444 9.78515C16.8147 9.71869 16.7038 9.62245 16.6213 9.50481L15.7181 8.21669C15.5841 8.02558 15.5338 7.79065 15.5783 7.56359C15.6229 7.33652 15.7585 7.13592 15.9555 7.00591C16.1525 6.8759 16.3946 6.82714 16.6287 6.87035C16.8627 6.91355 17.0695 7.04519 17.2035 7.2363L18.1067 8.52442C18.1985 8.65534 18.2518 8.80805 18.2609 8.96615C18.27 9.12424 18.2345 9.28175 18.1582 9.42175C18.082 9.56175 17.9679 9.67895 17.8281 9.76076C17.6884 9.84257 17.5283 9.88589 17.3651 9.88607Z" fill="#B5E5FB"/>
<path d="M12.9694 13.783C12.7547 13.7832 12.547 13.7084 12.3845 13.5722L11.1663 12.5564C10.9856 12.4057 10.874 12.1916 10.8561 11.9611C10.8381 11.7306 10.9153 11.5027 11.0706 11.3274C11.2259 11.1521 11.4466 11.0438 11.6841 11.0264C11.9217 11.009 12.1566 11.0838 12.3373 11.2345L13.5555 12.2508C13.6946 12.3669 13.7937 12.5215 13.8395 12.6938C13.8853 12.8661 13.8757 13.0479 13.8119 13.2147C13.748 13.3816 13.6331 13.5255 13.4825 13.627C13.3319 13.7286 13.1528 13.783 12.9694 13.783Z" fill="#B5E5FB"/>
</svg>
