<svg width="128" height="128" viewBox="0 0 128 128" fill="none" xmlns="http://www.w3.org/2000/svg">
<g clip-path="url(#clip0_38_5499)">
<mask id="mask0_38_5499" style="mask-type:luminance" maskUnits="userSpaceOnUse" x="0" y="0" width="128" height="128">
<path d="M128 0H0V128H128V0Z" fill="white"/>
</mask>
<g mask="url(#mask0_38_5499)">
<path fill-rule="evenodd" clip-rule="evenodd" d="M64.0391 0C99.4083 0 128.078 28.6695 128.078 64.0391C128.078 99.4083 99.4083 128.078 64.0391 128.078C28.6695 128.078 0 99.4083 0 64.0391C0 28.6695 28.6695 0 64.0391 0Z" fill="#B5E5FB"/>
<path fill-rule="evenodd" clip-rule="evenodd" d="M64.0392 20.2559C88.19 20.2559 107.744 39.8104 107.744 63.9612C107.744 88.1122 88.19 107.667 64.0392 107.667C39.8882 107.667 20.3337 88.1122 20.3337 63.9612C20.2558 39.8883 39.8882 20.2559 64.0392 20.2559Z" fill="#E13A4A"/>
<path fill-rule="evenodd" clip-rule="evenodd" d="M64.0391 22.437C87.0213 22.437 105.641 41.0566 105.641 64.0391C105.641 87.0213 87.0213 105.641 64.0391 105.641C41.0566 105.641 22.437 87.0213 22.437 64.0391C22.437 41.0566 41.0566 22.437 64.0391 22.437Z" fill="white"/>
<path fill-rule="evenodd" clip-rule="evenodd" d="M39.5762 46.8993C38.8749 46.1205 38.9531 44.796 39.9656 42.8484C40.9785 41.2123 42.0692 40.4332 43.5493 41.6017C49.8597 45.8086 54.2225 49.5482 57.5724 52.3528C60.0654 54.5342 62.4806 56.9493 62.9481 61.39C63.4935 65.6749 63.1819 93.6431 63.5713 103.459H60.7667C60.6886 94.1106 61.0005 68.1679 59.5982 64.3505C58.3516 60.8446 56.6377 57.4169 49.7819 53.7551C46.6658 51.8852 43.2377 50.0936 39.5762 46.8993Z" fill="#036799"/>
<path fill-rule="evenodd" clip-rule="evenodd" d="M91.1504 41.2126C91.8517 40.4335 91.7736 39.109 90.761 37.1614C89.7481 35.5253 88.6574 34.7462 87.1773 35.9147C80.8669 40.1219 76.5041 43.8612 73.1542 46.6661C70.6612 48.8472 68.246 51.2623 67.7785 55.7029C67.2332 60.0657 65.7531 92.8642 65.0518 103.46H67.8563C68.4017 93.1761 69.7261 62.4809 71.1284 58.6635C72.3751 55.1576 74.0889 51.7299 80.9447 48.0684C84.0609 46.1985 87.4111 44.4066 91.1504 41.2126Z" fill="#036799"/>
<path fill-rule="evenodd" clip-rule="evenodd" d="M64.0391 84.3726C74.6342 84.3726 83.2039 87.3328 83.2039 90.9946C83.2039 91.0724 83.2039 91.0724 83.2039 91.1502V100.889C77.4388 103.849 70.9727 105.563 64.0391 105.563C57.1052 105.563 50.6391 103.849 44.8741 100.889V91.1502C44.8741 91.0724 44.8741 91.0724 44.8741 90.9946C44.7962 87.3328 53.4437 84.3726 64.0391 84.3726Z" fill="#036799"/>
<path fill-rule="evenodd" clip-rule="evenodd" d="M78.4516 92.6307C79.9317 91.7734 79.9317 91.2281 78.6075 90.2933C77.3609 89.4364 75.2573 88.8132 72.7643 88.3457C73.6994 88.6573 74.4003 88.9689 75.0238 89.3586C76.348 90.2155 76.348 90.7609 74.8679 91.6178C70.1935 94.2664 57.7286 94.7339 50.4053 92.9423C56.8717 95.9025 72.9203 95.7468 78.4516 92.6307Z" fill="#B5E5FB"/>
<path fill-rule="evenodd" clip-rule="evenodd" d="M79.776 95.5908V99.7199C79.776 100.187 78.9191 100.888 78.6075 101.122C75.1795 103.382 67.9343 103.693 64.039 103.693C60.1434 103.693 52.8983 103.382 49.4705 101.122C49.3146 100.967 48.9252 100.733 48.6914 100.499C52.8204 102.603 63.0261 102.914 70.8948 101.901C71.5958 101.823 72.5305 101.667 72.6087 100.655V99.2526L73.9331 99.0967V100.499C73.9331 100.888 73.6994 101.2 73.2318 101.512C75.2573 101.356 76.9715 100.733 78.2956 99.798C78.2956 98.6292 78.2956 97.5385 78.2956 96.3699C78.841 96.1362 79.3863 95.9024 79.776 95.669C79.6982 95.669 79.6982 95.669 79.776 95.5908Z" fill="#E13A4A"/>
<path fill-rule="evenodd" clip-rule="evenodd" d="M68.9473 99.5641H69.0252L73.7774 99.0966V100.499C73.7774 100.889 73.5436 101.2 73.0764 101.512C75.1018 101.356 76.8157 100.733 78.1402 99.7979C78.1402 98.629 78.1402 97.5383 78.1402 96.3698C75.8809 97.2267 72.6088 97.7721 68.9473 98.0837C61.3903 98.785 52.3531 98.2396 48.6138 96.292C48.8472 96.6036 49.2369 96.8373 49.3926 96.9152C52.8206 99.1744 60.0658 99.5641 63.9611 99.5641C65.3633 99.6419 67.0775 99.6419 68.9473 99.5641Z" fill="white"/>
<path fill-rule="evenodd" clip-rule="evenodd" d="M36.772 60.5332C39.1868 60.5332 41.1345 62.4808 41.1345 64.896C41.1345 67.3112 39.1868 69.2588 36.772 69.2588C34.3568 69.2588 32.4092 67.3112 32.4092 64.896C32.487 62.4808 34.3568 60.5332 36.772 60.5332Z" fill="#036799"/>
<path fill-rule="evenodd" clip-rule="evenodd" d="M47.6006 60.5332C50.0158 60.5332 51.9634 62.4808 51.9634 64.896C51.9634 67.3112 50.0158 69.2588 47.6006 69.2588C45.1854 69.2588 43.2378 67.3112 43.2378 64.896C43.2378 62.4808 45.1854 60.5332 47.6006 60.5332Z" fill="#036799"/>
<path fill-rule="evenodd" clip-rule="evenodd" d="M36.772 71.1284C39.1868 71.1284 41.1345 73.0761 41.1345 75.4912C41.1345 77.9064 39.1868 79.854 36.772 79.854C34.3568 79.854 32.4092 77.9064 32.4092 75.4912C32.487 73.0761 34.3568 71.1284 36.772 71.1284Z" fill="#036799"/>
<path fill-rule="evenodd" clip-rule="evenodd" d="M64.1167 30.6172C66.5319 30.6172 68.4795 32.5648 68.4795 34.9799C68.4795 37.3951 66.5319 39.3427 64.1167 39.3427C61.7015 39.3427 59.7539 37.3951 59.7539 34.9799C59.8317 32.5648 61.7794 30.6172 64.1167 30.6172Z" fill="#036799"/>
<path fill-rule="evenodd" clip-rule="evenodd" d="M79.9318 60.5332C82.347 60.5332 84.2946 62.4808 84.2946 64.896C84.2946 67.3112 82.347 69.2588 79.9318 69.2588C77.517 69.2588 75.5693 67.3112 75.5693 64.896C75.6472 62.4808 77.5948 60.5332 79.9318 60.5332Z" fill="#036799"/>
<path fill-rule="evenodd" clip-rule="evenodd" d="M79.9318 71.1284C82.347 71.1284 84.2946 73.0761 84.2946 75.4912C84.2946 77.9064 82.347 79.854 79.9318 79.854C77.517 79.854 75.5693 77.9064 75.5693 75.4912C75.6472 73.0761 77.5948 71.1284 79.9318 71.1284Z" fill="#036799"/>
<path fill-rule="evenodd" clip-rule="evenodd" d="M90.7607 71.1284C93.1756 71.1284 95.1232 73.0761 95.1232 75.4912C95.1232 77.9064 93.1756 79.854 90.7607 79.854C88.3456 79.854 86.3979 77.9064 86.3979 75.4912C86.3979 73.0761 88.3456 71.1284 90.7607 71.1284Z" fill="#036799"/>
<path d="M91.0723 62.637H90.9945L91.4617 63.4158L91.9293 62.7926L91.8514 62.7148V61.2344H95.357V62.7148L94.1885 62.7926L92.7084 64.8181L94.2666 66.9995H95.5908L95.5129 68.5577H91.6955V67.1554H91.7733L91.3061 66.3763L90.9164 66.9995H90.9945V68.5577H87.4108L87.2549 66.9995H88.5793L90.0594 64.8962L88.5015 62.7148L87.3327 62.637L87.4108 61.2344H91.0723V62.637Z" fill="#036799"/>
<path d="M45.2636 75.3356C45.2636 75.725 45.3417 75.9588 45.5755 76.0366C45.7311 76.1926 46.1209 76.2704 46.5881 76.2704V74.4787C46.0427 74.4787 45.7311 74.5565 45.4974 74.6343C45.2636 74.7122 45.2636 74.9459 45.2636 75.3356ZM49.8602 75.3356C49.8602 75.0241 49.7824 74.7903 49.6264 74.6343C49.4708 74.5565 49.0811 74.4787 48.5357 74.4787V76.2704C49.0811 76.2704 49.3926 76.1926 49.5486 76.0366C49.7824 75.881 49.8602 75.6472 49.8602 75.3356ZM49.4708 79.3087H45.6533L45.5755 77.9843L46.5881 77.9064V77.5949C45.4196 77.5949 44.5626 77.3611 43.9395 77.0495C43.316 76.6598 43.0044 76.1144 43.0044 75.2575C43.0044 74.8681 43.0825 74.4787 43.2382 74.2449C43.3941 73.9334 43.6279 73.7774 44.0173 73.6215C44.3289 73.4658 44.7183 73.388 45.108 73.3099C45.4974 73.2321 46.0427 73.2321 46.5881 73.2321V72.9983L45.809 72.9205L45.8871 71.6738H49.3148V72.9205L48.6138 72.9983V73.2321C49.7824 73.2321 50.7171 73.388 51.3406 73.6996C51.9638 74.0112 52.2753 74.5565 52.2753 75.3356C52.2753 76.1144 51.9638 76.7379 51.3406 77.1273C50.7171 77.517 49.7824 77.6727 48.6917 77.6727V77.9843L49.7045 78.0624L49.4708 79.3087Z" fill="#036799"/>
<path d="M64.039 43.7056L63.2599 46.0426H64.74L64.039 43.7056ZM63.1821 49.2369H60.0656L59.9878 47.7565L60.6888 47.6787L62.7145 41.9917H65.5969L67.6227 47.8346L68.3237 47.9124L68.2459 49.3147H64.8959V48.1462L65.4413 48.0684L65.2075 47.523H62.8702L62.7145 47.9902L63.3377 48.0684L63.1821 49.2369Z" fill="#036799"/>
<path d="M25.1637 97.9284L24.852 97.5387L23.1381 99.0191L23.4497 99.4085C23.6834 99.7201 23.9951 99.876 24.3067 99.876C24.6183 99.9539 24.9299 99.7982 25.2416 99.4863C25.5532 99.2529 25.6311 98.941 25.6311 98.7075C25.6311 98.4738 25.4753 98.24 25.1637 97.9284ZM21.5021 101.59L19.6323 99.4085L20.3335 98.7075L20.8788 99.1747L23.9951 96.3702L23.5276 95.747L24.3067 95.2017L26.1764 97.3049C27.2671 98.5516 27.345 99.6423 26.3323 100.499C26.0206 100.733 25.709 100.889 25.3974 101.045C25.0858 101.122 24.7741 101.122 24.4625 101.045C24.1509 100.967 23.9171 100.889 23.6055 100.733C23.3718 100.577 23.1381 100.421 22.9044 100.188L22.359 99.5645L21.58 100.265L22.1253 100.967L21.5021 101.59ZM28.5915 103.148C28.3578 102.914 28.1241 102.837 27.8904 102.914C27.6567 102.914 27.423 103.07 27.1113 103.304L28.5915 104.55C28.6694 104.472 28.6694 104.472 28.7474 104.394C29.059 104.005 28.9811 103.538 28.5915 103.148ZM28.7474 105.953L26.4881 104.005C26.0985 104.628 26.1765 105.251 26.7218 105.719C26.8776 105.875 27.1113 105.953 27.2671 106.031C27.5009 106.108 27.6567 106.108 27.7346 106.108H27.8904V107.043H27.8125C27.7346 107.043 27.6567 107.043 27.5009 107.043C27.345 107.043 27.1892 107.043 27.0334 106.966C26.8776 106.966 26.7218 106.887 26.4881 106.732C26.2543 106.654 26.0985 106.498 25.8648 106.342C25.2416 105.797 24.9299 105.174 24.852 104.55C24.7741 103.927 25.0078 103.304 25.5532 102.603C26.0985 101.979 26.6439 101.668 27.2671 101.59C27.8904 101.59 28.5136 101.746 29.059 102.291C29.6043 102.758 29.9159 103.226 29.9159 103.771C29.9938 104.317 29.7601 104.784 29.2927 105.33C29.2148 105.407 29.059 105.563 28.9811 105.641C28.9032 105.719 28.7474 105.797 28.6694 105.797L28.7474 105.953ZM33.967 108.679L33.11 108.056L33.4997 107.355C33.4216 107.121 33.3438 106.887 33.11 106.732C32.7984 106.498 32.5647 106.498 32.3309 106.576C32.0975 106.654 31.7856 106.966 31.4741 107.355C30.8508 108.29 30.8508 108.991 31.552 109.459C31.7078 109.614 31.9415 109.692 32.0975 109.692C32.3309 109.692 32.4869 109.77 32.6428 109.692H32.8763L32.9544 110.627C32.9544 110.627 32.8763 110.627 32.8763 110.705C32.7984 110.705 32.7206 110.705 32.5647 110.783C32.409 110.783 32.2531 110.783 32.0975 110.783C31.9415 110.783 31.7856 110.705 31.552 110.627C31.3182 110.549 31.0845 110.393 30.8508 110.237C30.1497 109.77 29.7601 109.147 29.6822 108.524C29.6043 107.9 29.8381 107.199 30.3055 106.576C30.7729 105.953 31.2404 105.563 31.8637 105.407C32.4869 105.251 33.0322 105.407 33.5776 105.797C33.8113 105.953 34.0451 106.264 34.2007 106.732L34.5123 106.576L35.2136 107.043L33.967 108.679ZM38.4076 114.756L36.7718 113.821L38.6413 110.549L37.1612 109.692L35.759 112.107L36.2265 112.419L35.6811 113.198L33.6554 112.029L34.1229 111.095L34.5904 111.328L35.9146 108.991L35.5252 108.679L36.0705 107.823L40.7449 110.549L40.2774 111.406L39.888 111.25L38.4857 113.665L38.9529 113.977L38.4076 114.756ZM38.8751 117.483L39.3426 116.626C39.5764 116.859 39.8102 116.938 40.0436 117.015C40.4333 117.171 40.9787 116.859 41.6797 116.081L41.6019 112.029L40.9787 111.718L41.3681 110.783L43.0041 111.406L42.9263 114.912L44.4064 113.12L44.017 112.886L44.4064 111.952L46.5878 112.808L46.1984 113.743L45.5753 113.588L42.7704 116.704C41.6019 117.95 40.6671 118.418 39.8102 118.106C39.5764 118.028 39.3426 117.872 39.1867 117.794C39.0311 117.717 38.9529 117.561 38.9529 117.561L38.8751 117.483ZM49.4705 114.756C49.0808 114.678 48.7692 114.678 48.6136 114.834C48.3798 114.99 48.2239 115.224 48.0682 115.613L47.9901 115.925C47.6785 117.015 47.9123 117.639 48.6136 117.872C49.3146 118.106 49.8599 117.639 50.1715 116.548C50.3275 116.081 50.3275 115.691 50.2496 115.379C50.0937 115.068 49.8599 114.834 49.4705 114.756ZM51.8854 113.432L51.4182 113.276L50.7169 113.12C49.9377 112.964 49.3924 112.964 49.003 113.042C48.6136 113.198 48.3017 113.509 48.1461 113.977C48.6136 113.665 49.2368 113.665 49.9377 113.821C50.7169 114.055 51.1844 114.445 51.496 114.912C51.8076 115.457 51.8076 116.081 51.5738 116.859C51.34 117.639 50.9506 118.184 50.3275 118.495C49.7043 118.807 49.0808 118.885 48.3017 118.651C47.4448 118.418 46.8994 117.95 46.5878 117.327C46.3541 116.704 46.3541 115.925 46.5878 114.99C46.6656 114.756 46.7438 114.522 46.7438 114.366C46.7438 114.211 46.8994 113.977 46.9775 113.743C47.0554 113.509 47.211 113.276 47.2891 113.12C47.3669 112.964 47.5229 112.808 47.6785 112.575C47.8345 112.419 47.9901 112.263 48.1461 112.107C48.3017 112.029 48.5355 111.873 48.7692 111.796C49.003 111.718 49.2368 111.64 49.5483 111.64C49.8599 111.64 50.1715 111.64 50.4831 111.718L51.1844 111.873L51.34 111.562L52.1973 111.873L51.8854 113.432ZM57.417 120.443L55.0797 120.054L55.1575 119.041H55.7028L56.1704 116.392L55.2356 116.236C54.6903 118.729 53.7552 119.82 52.5089 119.586C52.3529 119.586 52.1973 119.508 52.0413 119.431L52.1973 118.495C52.2751 118.495 52.3529 118.574 52.3529 118.574C52.7426 118.651 52.9761 118.495 53.288 118.106C53.5214 117.717 53.7552 117.093 53.989 116.158L53.288 115.925L53.5214 114.912L57.7286 115.613L57.1051 119.353L57.6505 119.508L57.417 120.443ZM60.4553 120.599H59.4425L59.5203 116.859L59.0527 116.782L59.1309 115.769H61.0007L60.9226 118.495L63.0261 115.847H64.8178V116.859L64.3506 116.938L64.2725 119.664L64.8178 119.742L64.74 120.677L62.403 120.599V119.742L62.8702 119.664L62.9483 117.639L60.4553 120.599ZM68.6353 120.521L66.4539 120.677L66.2982 119.664L66.8436 119.586L66.6098 116.938H65.9867V115.925L67.9343 115.769L68.0899 117.639L68.7134 117.327L69.025 116.626H68.869V115.691L71.0504 115.535L71.1282 116.548L70.1935 116.782L69.5703 117.794L70.661 119.353L71.5958 119.275V120.365L69.9597 120.521L69.5703 120.131L68.4015 118.574L68.0899 118.729L68.1681 119.742H68.5574L68.6353 120.521ZM74.4785 119.742L73.4656 119.976L72.6087 116.314L72.1411 116.392L71.9852 115.379L73.7772 114.99L74.4003 117.639L75.8026 114.6L77.5168 114.211L77.7503 115.146L77.2831 115.301L77.9062 118.028L78.4516 117.95L78.6075 118.885L76.348 119.431L76.1923 118.574L76.6596 118.34L76.1923 116.314L74.4785 119.742ZM85.6189 116.47L82.97 117.483L82.5806 116.548L83.2038 116.236L81.6459 112.341L80.9445 112.575L80.633 111.718L83.1259 110.705L83.4375 111.484L82.97 111.718L83.6713 113.354L84.1388 112.886L84.762 110.939L84.606 111.016L84.2945 110.237L86.7096 109.303L87.099 110.237L86.0865 110.705L85.3073 112.964L87.8781 114.445L88.891 114.055L89.2026 114.99L87.3328 115.769L86.7874 115.613L84.5282 114.211L84.1388 114.756L84.5282 115.769L85.2295 115.535L85.6189 116.47ZM90.9946 109.459C90.8387 109.536 90.6827 109.692 90.6049 109.848C90.5271 110.004 90.4493 110.082 90.4493 110.16C90.4493 110.237 90.4493 110.316 90.4493 110.393L91.54 112.341C91.54 112.341 91.6178 112.341 91.6956 112.341C91.7734 112.341 91.8515 112.341 92.0072 112.341C92.1631 112.341 92.3188 112.263 92.4747 112.185C93.1757 111.796 93.2538 111.095 92.7085 110.082C92.4747 109.614 92.1631 109.38 91.9294 109.303C91.6178 109.147 91.3062 109.225 90.9946 109.459ZM93.6432 115.224L91.6178 116.392L91.0724 115.535L91.54 115.224L89.0467 110.783L88.5794 111.016L88.1119 110.082L89.592 109.225L89.8258 109.459C89.8258 109.38 89.8258 109.303 89.9039 109.225C89.9039 109.147 90.0595 108.991 90.2155 108.757C90.3711 108.524 90.6049 108.368 90.9165 108.212C91.4618 107.9 92.085 107.823 92.6303 107.978C93.1757 108.134 93.6432 108.601 93.9548 109.225C94.3445 109.926 94.5002 110.627 94.4223 111.25C94.3445 111.873 94.0329 112.419 93.4095 112.73C93.1757 112.886 92.9422 112.964 92.7085 113.042C92.4747 113.12 92.3188 113.12 92.2409 113.12H92.085L92.8641 114.522L93.3316 114.289L93.6432 115.224ZM96.9931 107.355L96.5259 107.667L97.3829 108.757L97.8501 108.446C98.3954 108.056 98.4736 107.667 98.0838 107.199C97.9282 106.966 97.7723 106.887 97.6166 106.966C97.4607 107.043 97.3047 107.199 96.9931 107.355ZM96.5259 110.705L95.8246 109.926L96.2143 109.536L94.5783 107.433L94.1886 107.667L93.6432 106.81L95.1236 105.641L96.0584 106.887L96.5259 106.498C97.7723 105.485 98.7073 105.407 99.3305 106.186C99.7199 106.654 99.798 107.121 99.6421 107.589C99.4861 108.056 99.0967 108.601 98.4736 109.069L96.5259 110.705ZM102.447 106.108L100.967 107.277L98.5514 104.161L98.2398 104.317L97.7723 103.615L99.4861 102.291L100.11 103.07L99.798 103.382L101.512 105.563L101.979 105.251L102.447 106.108ZM101.356 101.824L100.967 102.213L100.265 101.512L101.901 99.7982L105.251 101.434L103.46 98.1622L105.096 96.448L105.797 97.1493L105.485 97.5387L107.589 99.4085L107.978 99.0191L108.601 99.7201L107.433 100.967L105.563 99.2529L105.017 98.7853L106.576 101.824L105.719 102.758L102.524 101.434L102.68 101.512L104.083 102.992L104.394 102.681L105.017 103.382L103.615 104.784L102.836 104.161L103.148 103.771L101.356 101.824Z" fill="#001848"/>
<path fill-rule="evenodd" clip-rule="evenodd" d="M18.3082 90.9165L19.0093 92.4747L20.7233 92.7085L19.3989 93.877L19.7884 95.5131L18.3082 94.734L16.75 95.5131L17.1396 93.877L15.8931 92.7085L17.5291 92.4747L18.3082 90.9165Z" fill="#E13A4A"/>
<path fill-rule="evenodd" clip-rule="evenodd" d="M109.068 90.9165L109.848 92.4747L111.561 92.7085L110.237 93.877L110.627 95.5131L109.068 94.734L107.588 95.5131L107.978 93.877L106.653 92.7085L108.368 92.4747L109.068 90.9165Z" fill="#E13A4A"/>
<path d="M13.5557 88.6574C13.7894 88.8133 14.179 88.8133 14.5685 88.6574C15.0359 88.5017 15.2696 88.268 15.3475 87.8782C15.4255 87.5667 15.3475 87.0991 15.1138 86.476L12.7766 87.411C13.0104 88.0342 13.2441 88.4236 13.5557 88.6574ZM12.6208 83.9052C12.2313 84.0608 11.9197 84.2946 11.9197 84.6062C11.8418 84.9181 11.9976 85.3853 12.2313 86.0084L14.5685 85.0737C14.3348 84.4505 14.0231 84.0608 13.7894 83.9052C13.4778 83.7492 13.0883 83.7492 12.6208 83.9052ZM16.5162 83.3598L17.7626 86.3982L16.8278 86.8657L16.4382 86.0084L16.0487 86.1644C16.9057 88.3458 16.5941 89.7481 15.1918 90.2934C14.4906 90.605 13.8673 90.5272 13.322 90.0596C12.7766 89.5921 12.3092 88.8911 11.9197 87.8004L11.5302 87.9564L11.7639 88.7352L10.9069 88.9689L9.8162 86.1644L10.6732 85.8528L10.9848 86.5538L11.3743 86.3982C11.1406 85.8528 11.0627 85.3853 10.9069 84.9959C10.829 84.6061 10.7511 84.2167 10.829 83.8273C10.829 83.4376 10.9848 83.126 11.1406 82.8923C11.3743 82.6585 11.608 82.4248 11.9976 82.2691C13.4778 81.7238 14.6464 82.5029 15.5034 84.6843L15.8929 84.5283L15.5813 83.5936L16.5162 83.3598ZM9.03714 75.8027L9.34876 77.0494L8.72553 77.2831L9.19297 79.153L10.829 78.7633L10.2057 75.9587L11.3743 75.7249L11.9976 78.5295L13.7115 78.1401L13.2441 76.0365L12.465 76.1146L12.2313 74.9458L14.179 74.5564L15.5034 80.2437L14.4127 80.5553L14.179 79.7761L9.50458 80.8668L9.6604 81.7238L8.64762 81.8794L7.71274 77.6726L7.32321 76.2703L9.03714 75.8027ZM7.55692 69.2589L7.71274 71.0505C9.73828 70.9727 11.2964 71.1283 12.3871 71.5959L12.1534 68.947L7.55692 69.2589ZM15.3475 72.2191L15.4255 73.4657L12.465 73.7773V73.076C11.9197 72.8425 11.2964 72.6866 10.5953 72.6088C9.8162 72.4528 8.88132 72.4528 7.79065 72.4528V73.3879H6.62204L6.1546 66.8437L7.32321 66.7659L7.479 67.5447L12.0755 67.1553L11.9197 66.2205L14.8801 66.1424L14.958 67.4669L13.322 67.7784L13.6336 72.0634L15.3475 72.2191ZM8.41388 59.2088L8.336 60.4554H7.63483L7.479 62.4031L9.11505 62.5587L9.34876 59.6763L10.5174 59.7541L10.2836 62.6368L11.9976 62.7925L12.1534 60.6111L11.3743 60.4554L11.5302 59.2866L13.4778 59.5204L13.0104 65.3633H11.8418V64.5063L7.08948 64.1169L6.93369 64.9739L5.9209 64.8179L6.23251 60.5333V59.131L8.41388 59.2088ZM8.336 54.6122L8.25809 55.1576L10.829 55.6251L10.9069 55.0798C10.9848 54.6904 10.9069 54.3006 10.7511 53.9891C10.5953 53.6775 10.2836 53.5215 9.8162 53.4437C9.34876 53.3659 9.03714 53.4437 8.80344 53.5997C8.5697 53.8334 8.41388 54.145 8.336 54.6122ZM14.2569 55.3135L13.6336 58.5078L12.5429 58.4297L12.6208 57.6506L7.94644 56.7936L7.71274 57.5727L6.69995 57.339L7.2453 54.2228C7.63483 52.1974 8.5697 51.4183 10.0499 51.7298C10.5174 51.8077 10.829 51.9636 11.1406 52.1974C11.4522 52.4308 11.6859 52.6646 11.8418 52.9762C11.9976 53.2881 12.0755 53.5997 12.1534 53.9891C12.2313 54.3006 12.1534 54.6904 12.1534 55.0019L11.9976 55.8589L13.1662 56.0926L13.3999 55.0798L14.2569 55.3135ZM10.3615 47.367L12.6987 49.2369L13.322 47.4449L10.3615 47.367ZM15.5034 50.3276L14.5685 52.8984L13.4778 52.5868L13.7115 51.8855L8.80344 47.9124L9.50458 45.8869L15.8929 45.8088L16.2045 45.1078L17.2173 45.4972L16.2045 48.3018L15.3475 47.9902L15.5034 47.367L14.4906 47.4449L13.6336 49.9378L14.4127 50.5613L14.7243 49.9378L15.5034 50.3276ZM13.4778 39.4987L13.1662 40.1997L17.3731 42.3033L18.6196 39.8103L14.4127 37.7067L13.9452 38.408L13.0104 37.8626L14.4127 34.9799L15.3475 35.4475L15.0359 36.1485L19.2429 38.252L19.7103 37.3173L22.2812 38.7974L21.6579 40.0437L20.0219 39.4206L17.2952 44.8741L16.3603 44.6403L16.6719 43.8612L12.3871 41.6798L11.9197 42.3811L10.9848 41.8357L12.3871 38.9533L13.4778 39.4987ZM26.3323 31.1626L24.3847 33.5777L23.5277 32.9545L23.9951 32.2532L21.7359 30.4614L21.1905 29.994L22.7486 35.2915L22.8266 35.5253L21.4242 37.3951L20.4894 36.7719L20.9568 36.0706L17.2173 33.1101L16.6719 33.7336L15.8929 33.0323L17.8406 30.6172L18.6975 31.2405L18.308 31.8638L20.6452 33.6555L21.1126 34.123L19.5545 28.8254L19.3987 28.5917L20.801 26.7998L21.6579 27.4231L21.1905 28.0463L25.0079 31.0846L25.5533 30.4614L26.3323 31.1626ZM24.6184 25.008C24.6184 25.2417 24.6963 25.5533 24.93 25.787C25.1637 26.0207 25.3974 26.1766 25.7091 26.1766C26.0207 26.1766 26.2544 26.0986 26.4102 25.9429L27.423 25.008L25.8649 23.3719L24.93 24.2289C24.7742 24.4626 24.6184 24.6963 24.6184 25.008ZM28.1242 29.4486L26.8777 30.6172L26.0207 29.8382L26.7219 29.137L26.3323 27.4231C25.8649 27.5789 25.4754 27.6568 25.0079 27.501C24.5405 27.4231 24.151 27.1894 23.8393 26.7998C23.294 26.2545 23.1382 25.7091 23.2161 25.0859C23.294 24.4626 23.6056 23.9173 24.2289 23.3719L26.9556 20.801L27.7346 21.658L27.1893 22.2034L30.4614 25.7091L31.0846 25.1638L31.7856 26.0207L29.5265 28.1242L28.8253 27.501L29.3707 26.8777L28.4358 25.8649L27.5788 26.644L28.0463 28.8254L28.1242 29.4486ZM34.9799 16.8278L35.5253 19.7883L37.1613 18.8534L34.9799 16.8278ZM36.9275 22.3591L34.5124 23.7615L33.8892 22.8266L34.5124 22.3591L33.4998 16.2046L35.3693 15.1139L40.2775 19.165L40.9009 18.8534L41.3682 19.7883L38.7974 21.2685L38.3298 20.4894L38.7974 20.0999L38.0182 19.4766L35.759 20.801L35.9147 21.7359L36.5381 21.4243L36.9275 22.3591ZM44.0949 12.3872L42.381 13.0883C43.082 14.958 43.3939 16.5162 43.3158 17.6848L45.8088 16.672L44.0949 12.3872ZM43.6274 20.7231L42.4589 21.1906L41.2903 18.4638L41.9916 18.2301C42.0695 17.6069 41.9916 16.9836 41.9135 16.2825C41.7579 15.5813 41.5241 14.6464 41.1344 13.6336L40.2775 13.8674L39.8881 12.7767L45.9647 10.3616L46.3541 11.4523L45.6531 11.686L47.367 15.9708L48.3018 15.5813L49.2368 18.3859L47.9902 18.8534L47.2111 17.2952L43.238 18.8534L43.6274 20.7231ZM51.5739 10.2058L51.2623 13.1662L53.1321 12.6988L51.5739 10.2058ZM51.8076 16.0487L49.0809 16.672L48.8471 15.5813L49.5484 15.3476L50.3275 9.11508L52.4308 8.64765L55.8588 14.0232L56.5598 13.8674L56.7158 14.958L53.9112 15.5813L53.6774 14.7243L54.2228 14.4906L53.5996 13.6336L51.0285 14.2569L50.8729 15.1918L51.5739 15.1139L51.8076 16.0487ZM60.4554 14.7243L57.2611 14.958L57.1052 13.8674L57.8843 13.7116L57.4949 8.95929H56.638V7.86859L64.2725 7.32324L64.3507 8.41394L63.5716 8.56973L63.961 13.322H64.8179V14.4906L61.6239 14.7243L61.5461 13.4778L62.3249 13.322L61.9355 8.72556L59.2088 8.95929L59.5982 13.6336H60.4554V14.7243ZM66.8437 9.73834L65.6751 9.66043L65.9086 7.47907L67.3109 7.63486L70.9727 7.9465H72.375L72.2972 10.1279L71.1283 10.05V9.11508L69.9598 9.03717L69.5704 13.7116L70.4273 13.8674L70.2714 14.958L66.9993 14.6464V13.4778H67.8562L68.2459 8.88138L67.0774 8.80347L66.8437 9.73834ZM80.0099 16.9836L76.9715 16.2825L77.1272 15.2697L77.9063 15.4255L78.5295 12.6209L78.7632 11.9197L74.6342 15.5813L74.4786 15.7371L72.219 15.1918L72.4528 14.0232L73.2319 14.179L74.3226 9.50461L73.5435 9.27091L73.8551 8.25812L76.8934 8.95929L76.6596 9.97205L75.8808 9.89417L75.1795 12.7767L74.9458 13.3999L79.0748 9.73834L79.2308 9.58252L81.49 10.1279L81.2562 11.1407L80.4771 11.0627L79.3864 15.815L80.1655 16.0487L80.0099 16.9836ZM84.4505 14.3348L85.619 14.8023C85.8528 14.8802 86.0084 14.8802 86.2422 14.8023C86.4759 14.7243 86.6319 14.4906 86.7875 14.179C86.8657 13.8674 86.8657 13.6336 86.7875 13.4778C86.6319 13.322 86.3981 13.1662 86.0865 13.0104L85.2296 12.6209L84.4505 14.3348ZM85.3074 15.8929L84.0608 15.3476L83.3598 17.1394L84.2945 17.529C85.1515 17.8406 85.6968 17.6848 86.0084 17.0615C86.0865 16.7499 86.1644 16.5162 86.0084 16.3604C85.8528 16.1267 85.619 15.9708 85.3074 15.8929ZM83.9051 18.6196L80.7887 17.3731L81.1784 16.2825L81.9575 16.5162L83.7492 12.0755L82.9701 11.686L83.4376 10.7511L86.4759 11.9976C87.3329 12.3092 87.8782 12.7767 88.112 13.2441C88.3457 13.7116 88.4236 14.179 88.1898 14.7243C87.956 15.2697 87.5666 15.5813 86.8657 15.7371C87.4888 16.3604 87.6444 16.9836 87.3329 17.6848C87.0991 18.308 86.6319 18.6976 86.0865 18.9313C85.619 19.0871 84.8399 19.0092 83.9051 18.6196ZM90.1374 21.8138L87.411 20.0999L87.956 19.0871L88.6573 19.4766L91.2281 15.4255L90.5272 14.958L91.1503 14.1011L93.8771 15.815L93.2539 16.7499L92.5526 16.3604L91.6179 17.8406L94.1108 19.3987L95.0456 17.9185L94.3446 17.4511L95.0456 16.5162L97.7723 18.2301L97.1492 19.165L96.4479 18.7755L93.8771 22.8266L94.5784 23.294L93.9549 24.151L91.3063 22.4371L91.8516 21.4243L92.5526 21.8138L93.4877 20.3336L90.9947 18.7755L90.0596 20.2557L90.7609 20.7231L90.1374 21.8138ZM101.434 25.787C101.901 25.2417 102.135 24.6963 102.135 24.151C102.135 23.6057 101.901 23.1382 101.356 22.7487C100.888 22.3591 100.343 22.1254 99.8759 22.2813C99.3306 22.3591 98.863 22.6708 98.3955 23.294C97.9283 23.9173 97.6167 24.4626 97.5386 25.008C97.4607 25.5533 97.6945 26.0986 98.162 26.4882C98.6293 26.8777 99.1746 27.0335 99.72 26.9556C100.421 26.7219 100.967 26.3324 101.434 25.787ZM102.758 26.8777C101.979 27.7347 101.122 28.2021 100.187 28.3579C99.2527 28.4358 98.3177 28.1242 97.3829 27.3451C96.526 26.5661 96.0585 25.7091 95.9806 24.7742C95.9806 23.8394 96.2922 22.9045 97.0713 22.0475C97.7723 21.1906 98.6293 20.7231 99.5643 20.6452C100.499 20.5673 101.356 20.9568 102.291 21.658C103.226 22.4371 103.693 23.294 103.771 24.2289C103.849 25.1638 103.537 26.0207 102.758 26.8777ZM103.07 32.8764L100.967 30.3835L101.824 29.6045L102.369 30.1498L106.03 27.1114L105.563 26.4103L106.42 25.787L108.991 28.8254L110.004 29.8382L108.212 31.3963L107.355 30.3835L108.134 29.6823L107.043 28.4358L103.46 31.4742L104.005 32.2532L103.07 32.8764ZM110.861 37.4729C111.484 37.0835 111.873 36.616 112.029 36.0706C112.185 35.5253 112.107 35.0578 111.718 34.5124C111.406 33.9671 110.939 33.6555 110.393 33.5777C109.848 33.4998 109.302 33.6555 108.679 34.0452C108.056 34.4346 107.589 34.9021 107.355 35.4475C107.121 35.9928 107.199 36.5382 107.511 37.0835C107.822 37.6289 108.29 37.9405 108.913 37.9405C109.536 38.0961 110.159 37.9405 110.861 37.4729ZM111.795 38.9533C110.861 39.5765 109.848 39.8103 108.913 39.5765C107.978 39.4206 107.121 38.7974 106.498 37.7845C105.875 36.7719 105.719 35.8369 105.953 34.9021C106.186 33.9671 106.81 33.1883 107.822 32.5648C108.757 31.9416 109.692 31.7857 110.549 31.9416C111.406 32.1754 112.185 32.7207 112.808 33.7336C113.432 34.7462 113.665 35.6812 113.509 36.616C113.276 37.6289 112.73 38.408 111.795 38.9533ZM117.093 45.03L117.015 44.7962L116.08 46.1207L117.561 46.5101L117.483 46.2763L118.573 45.8869L119.742 48.7693L118.651 49.159L118.184 48.1462L115.379 47.4449L113.743 49.9378L114.133 51.0285L113.042 51.3404L111.873 48.3018L112.886 47.9124L112.964 48.1462L113.899 46.8217L112.419 46.5101L112.497 46.7439L111.406 47.1333L110.237 44.1728L111.25 43.7055L111.718 44.7962L114.522 45.4972L116.158 42.9264L115.769 41.8357L116.781 41.5241L117.95 44.4847L117.093 45.03ZM117.794 56.7158C118.495 56.5599 119.041 56.3264 119.43 55.8589C119.742 55.4695 119.898 54.9241 119.742 54.3006C119.586 53.6775 119.353 53.2099 118.885 52.9762C118.417 52.7427 117.794 52.6646 117.093 52.8205C116.314 52.9762 115.769 53.2099 115.379 53.6775C114.99 54.0669 114.834 54.6122 114.912 55.2357C115.068 55.8589 115.379 56.3264 115.847 56.5599C116.392 56.7936 117.015 56.8718 117.794 56.7158ZM118.106 58.4297C117.015 58.6634 116.002 58.5078 115.145 57.9625C114.288 57.4171 113.821 56.5599 113.587 55.4695C113.354 54.3006 113.587 53.3659 114.133 52.5868C114.678 51.8077 115.535 51.3404 116.704 51.1067C117.794 50.8729 118.729 51.0285 119.508 51.5739C120.287 52.1192 120.755 52.8984 120.988 54.0669C121.222 55.2357 121.066 56.2483 120.521 56.9496C120.054 57.7287 119.197 58.274 118.106 58.4297ZM114.756 63.1822L114.678 59.9879L115.847 59.9101L115.924 60.6889L120.677 60.5333V59.6763L121.767 59.7541L121.846 62.7925H120.833L120.755 62.1693L118.729 62.2471L119.041 62.9484L120.833 64.3507V64.1169H121.846L121.923 67.0775H120.755L120.677 65.8308L118.573 64.1169L115.924 66.2983V67.5447L114.756 67.4669L114.678 65.2076L115.068 64.7401L117.483 62.8703L117.093 62.2471L115.847 62.3249V63.1822H114.756ZM114.444 71.2843L114.834 68.09L116.002 68.1682V69.0251L120.755 69.5704L120.91 68.7913L121.923 69.0251L121.534 72.0634L120.521 71.9856V71.3621L118.495 71.1283L118.729 71.9075L120.287 73.5435L120.365 73.3098L121.378 73.4657L120.988 76.4262L119.898 76.2703L119.976 75.0239L118.184 73.076L115.301 74.868L115.145 76.1146L114.055 75.8809L114.288 73.6213L114.756 73.1541L117.405 71.6737L117.093 70.9727L115.847 70.8168L115.691 71.5959L114.444 71.2843ZM117.249 83.0482L117.561 81.8016L118.262 81.9575L118.729 80.0877L117.093 79.6202L116.392 82.3469L115.224 82.0353L115.924 79.3086L114.211 78.8411L113.665 80.9446L114.366 81.2562L113.977 82.4248L112.107 81.8794L113.587 76.1925L114.678 76.4262L114.522 77.205L119.119 78.4517L119.43 77.6726L120.443 77.9841L119.353 82.1132L119.041 83.5154L117.249 83.0482ZM116.158 86.9435C116.08 86.7097 115.847 86.476 115.535 86.3203C115.224 86.1644 114.912 86.1644 114.678 86.2422C114.366 86.3203 114.211 86.476 114.133 86.7097L113.587 87.9564L115.613 88.8911L116.158 87.7226C116.236 87.4888 116.236 87.2551 116.158 86.9435ZM111.25 84.1389L111.951 82.5807L113.042 82.9701L112.652 83.9052L113.665 85.3074C113.977 84.9959 114.366 84.7621 114.834 84.6843C115.301 84.6061 115.769 84.6843 116.236 84.8399C116.937 85.1515 117.327 85.619 117.483 86.1644C117.638 86.7875 117.561 87.411 117.249 88.112L115.769 91.4619L114.756 90.9947L114.99 90.2934L110.627 88.3458L110.237 89.0471L109.302 88.5795L110.549 85.775L111.484 86.0866L111.172 86.8657L112.419 87.411L112.886 86.3203L111.484 84.6062L111.25 84.1389Z" fill="#001848"/>
</g>
</g>
<defs>
<clipPath id="clip0_38_5499">
<rect width="128" height="128" fill="white"/>
</clipPath>
</defs>
</svg>
