<svg width="70" height="70" viewBox="0 0 70 70" fill="none" xmlns="http://www.w3.org/2000/svg">
<g clip-path="url(#clip0_38_4518)">
<mask id="mask0_38_4518" style="mask-type:luminance" maskUnits="userSpaceOnUse" x="0" y="0" width="70" height="70">
<path d="M70 0H0V70H70V0Z" fill="white"/>
</mask>
<g mask="url(#mask0_38_4518)">
<path fill-rule="evenodd" clip-rule="evenodd" d="M35.0214 0C54.3639 0 70.0425 15.6786 70.0425 35.0214C70.0425 54.3639 54.3639 70.0425 35.0214 70.0425C15.6786 70.0425 0 54.3639 0 35.0214C0 15.6786 15.6786 0 35.0214 0Z" fill="#B5E5FB"/>
<path fill-rule="evenodd" clip-rule="evenodd" d="M35.0212 11.0771C48.2286 11.0771 58.9225 21.7711 58.9225 34.9785C58.9225 48.1861 48.2286 58.8799 35.0212 58.8799C21.8136 58.8799 11.1198 48.1861 11.1198 34.9785C11.0771 21.8136 21.8136 11.0771 35.0212 11.0771Z" fill="#E13A4A"/>
<path fill-rule="evenodd" clip-rule="evenodd" d="M35.0212 12.2705C47.5895 12.2705 57.7722 22.4531 57.7722 35.0216C57.7722 47.59 47.5895 57.7727 35.0212 57.7727C22.4526 57.7727 12.27 47.59 12.27 35.0216C12.27 22.4531 22.4526 12.2705 35.0212 12.2705Z" fill="white"/>
<path fill-rule="evenodd" clip-rule="evenodd" d="M21.6432 25.6485C21.2596 25.2226 21.3024 24.4983 21.8561 23.4332C22.41 22.5385 23.0065 22.1124 23.8159 22.7514C27.267 25.052 29.6529 27.0972 31.4849 28.6309C32.8482 29.8239 34.169 31.1446 34.4247 33.5731C34.7229 35.9165 34.5525 51.2115 34.7655 56.5798H33.2317C33.189 51.4672 33.3596 37.2798 32.5927 35.1921C31.9109 33.2749 30.9737 31.4003 27.2244 29.3978C25.5203 28.3752 23.6455 27.3954 21.6432 25.6485Z" fill="#036799"/>
<path fill-rule="evenodd" clip-rule="evenodd" d="M49.8479 22.5383C50.2314 22.1123 50.1887 21.3879 49.6349 20.3228C49.081 19.4281 48.4845 19.002 47.6751 19.6411C44.2241 21.9419 41.8382 23.9868 40.0062 25.5207C38.6429 26.7135 37.3221 28.0343 37.0664 30.4628C36.7681 32.8487 35.9587 50.7853 35.5752 56.5797H37.1089C37.4072 50.9559 38.1315 34.1695 38.8984 32.0818C39.5801 30.1645 40.5174 28.29 44.2667 26.2876C45.9708 25.265 47.803 24.285 49.8479 22.5383Z" fill="#036799"/>
<path fill-rule="evenodd" clip-rule="evenodd" d="M35.0212 46.1416C40.8154 46.1416 45.5019 47.7605 45.5019 49.763C45.5019 49.8056 45.5019 49.8056 45.5019 49.8481V55.1739C42.3492 56.7927 38.813 57.73 35.0212 57.73C31.2292 57.73 27.6931 56.7927 24.5403 55.1739V49.8481C24.5403 49.8056 24.5403 49.8056 24.5403 49.763C24.4978 47.7605 29.2268 46.1416 35.0212 46.1416Z" fill="#036799"/>
<path fill-rule="evenodd" clip-rule="evenodd" d="M42.9032 50.6578C43.7127 50.189 43.7127 49.8908 42.9885 49.3796C42.3068 48.9109 41.1564 48.5701 39.793 48.3145C40.3044 48.4849 40.6877 48.6552 41.0287 48.8684C41.7528 49.337 41.7528 49.6352 40.9434 50.1039C38.3871 51.5523 31.5704 51.808 27.5654 50.8282C31.1017 52.4471 39.8783 52.3619 42.9032 50.6578Z" fill="#B5E5FB"/>
<path fill-rule="evenodd" clip-rule="evenodd" d="M43.6273 52.2764V54.5344C43.6273 54.7901 43.1587 55.1735 42.9883 55.3013C41.1136 56.537 37.1514 56.7074 35.0212 56.7074C32.8908 56.7074 28.9286 56.537 27.054 55.3013C26.9687 55.2162 26.7558 55.0884 26.6279 54.9605C28.886 56.1109 34.4672 56.2813 38.7704 55.7274C39.1538 55.6848 39.665 55.5995 39.7077 55.0458V54.2789L40.432 54.1936V54.9605C40.432 55.1735 40.3042 55.344 40.0485 55.5144C41.1561 55.4291 42.0936 55.0884 42.8177 54.5772C42.8177 53.938 42.8177 53.3415 42.8177 52.7024C43.116 52.5746 43.4142 52.4468 43.6273 52.3191C43.5848 52.3191 43.5848 52.3191 43.6273 52.2764Z" fill="#E13A4A"/>
<path fill-rule="evenodd" clip-rule="evenodd" d="M37.7054 54.4496H37.7479L40.3468 54.1939V54.9608C40.3468 55.1739 40.2189 55.3443 39.9634 55.5147C41.0711 55.4294 42.0084 55.0886 42.7327 54.5774C42.7327 53.9382 42.7327 53.3417 42.7327 52.7027C41.4972 53.1713 39.7078 53.4696 37.7054 53.64C33.5726 54.0235 28.6304 53.7253 26.5854 52.6602C26.7131 52.8306 26.9262 52.9584 27.0114 53.0009C28.8861 54.2365 32.8483 54.4496 34.9785 54.4496C35.7454 54.4921 36.6828 54.4921 37.7054 54.4496Z" fill="white"/>
<path fill-rule="evenodd" clip-rule="evenodd" d="M20.1095 33.1045C21.4302 33.1045 22.4953 34.1696 22.4953 35.4904C22.4953 36.8112 21.4302 37.8763 20.1095 37.8763C18.7887 37.8763 17.7236 36.8112 17.7236 35.4904C17.7662 34.1696 18.7887 33.1045 20.1095 33.1045Z" fill="#036799"/>
<path fill-rule="evenodd" clip-rule="evenodd" d="M26.0319 33.1045C27.3527 33.1045 28.4178 34.1696 28.4178 35.4904C28.4178 36.8112 27.3527 37.8763 26.0319 37.8763C24.7111 37.8763 23.646 36.8112 23.646 35.4904C23.646 34.1696 24.7111 33.1045 26.0319 33.1045Z" fill="#036799"/>
<path fill-rule="evenodd" clip-rule="evenodd" d="M20.1095 38.8984C21.4302 38.8984 22.4953 39.9636 22.4953 41.2843C22.4953 42.6051 21.4302 43.6702 20.1095 43.6702C18.7887 43.6702 17.7236 42.6051 17.7236 41.2843C17.7662 39.9636 18.7887 38.8984 20.1095 38.8984Z" fill="#036799"/>
<path fill-rule="evenodd" clip-rule="evenodd" d="M35.0641 16.7441C36.3849 16.7441 37.45 17.8092 37.45 19.13C37.45 20.4508 36.3849 21.5159 35.0641 21.5159C33.7433 21.5159 32.6782 20.4508 32.6782 19.13C32.7208 17.8092 33.7859 16.7441 35.0641 16.7441Z" fill="#036799"/>
<path fill-rule="evenodd" clip-rule="evenodd" d="M43.7129 33.1045C45.0337 33.1045 46.0988 34.1696 46.0988 35.4904C46.0988 36.8112 45.0337 37.8763 43.7129 37.8763C42.3923 37.8763 41.3271 36.8112 41.3271 35.4904C41.3697 34.1696 42.4348 33.1045 43.7129 33.1045Z" fill="#036799"/>
<path fill-rule="evenodd" clip-rule="evenodd" d="M43.7129 38.8984C45.0337 38.8984 46.0988 39.9636 46.0988 41.2843C46.0988 42.6051 45.0337 43.6702 43.7129 43.6702C42.3923 43.6702 41.3271 42.6051 41.3271 41.2843C41.3697 39.9636 42.4348 38.8984 43.7129 38.8984Z" fill="#036799"/>
<path fill-rule="evenodd" clip-rule="evenodd" d="M49.6349 38.8984C50.9555 38.8984 52.0207 39.9636 52.0207 41.2843C52.0207 42.6051 50.9555 43.6702 49.6349 43.6702C48.3141 43.6702 47.249 42.6051 47.249 41.2843C47.249 39.9636 48.3141 38.8984 49.6349 38.8984Z" fill="#036799"/>
<path d="M49.8054 34.2543H49.7629L50.0184 34.6803L50.2741 34.3395L50.2315 34.2969V33.4873H52.1486V34.2969L51.5096 34.3395L50.7002 35.4471L51.5523 36.6401H52.2765L52.2339 37.4922H50.1462V36.7254H50.1888L49.9333 36.2993L49.7202 36.6401H49.7629V37.4922H47.8031L47.7178 36.6401H48.4421L49.2515 35.4899L48.3995 34.2969L47.7603 34.2543L47.8031 33.4873H49.8054V34.2543Z" fill="#036799"/>
<path d="M24.7536 41.1988C24.7536 41.4118 24.7963 41.5396 24.9241 41.5822C25.0093 41.6675 25.2224 41.71 25.4779 41.71V40.7302C25.1797 40.7302 25.0093 40.7728 24.8814 40.8153C24.7536 40.8579 24.7536 40.9857 24.7536 41.1988ZM27.2673 41.1988C27.2673 41.0284 27.2248 40.9006 27.1395 40.8153C27.0544 40.7728 26.8412 40.7302 26.543 40.7302V41.71C26.8412 41.71 27.0116 41.6675 27.0969 41.5822C27.2248 41.4971 27.2673 41.3692 27.2673 41.1988ZM27.0544 43.3716H24.9667L24.9241 42.6473L25.4779 42.6048V42.4344C24.8389 42.4344 24.3702 42.3065 24.0294 42.1361C23.6885 41.923 23.5181 41.6247 23.5181 41.1561C23.5181 40.9432 23.5608 40.7302 23.6459 40.6024C23.7312 40.432 23.859 40.3467 24.072 40.2614C24.2424 40.1763 24.4553 40.1337 24.6685 40.091C24.8814 40.0484 25.1797 40.0484 25.4779 40.0484V39.9206L25.0518 39.8781L25.0945 39.1963H26.9691V39.8781L26.5857 39.9206V40.0484C27.2248 40.0484 27.736 40.1337 28.0769 40.3041C28.4177 40.4745 28.5881 40.7728 28.5881 41.1988C28.5881 41.6247 28.4177 41.9657 28.0769 42.1787C27.736 42.3918 27.2248 42.4769 26.6283 42.4769V42.6473L27.1822 42.69L27.0544 43.3716Z" fill="#036799"/>
<path d="M35.0212 23.9011L34.5951 25.1792H35.4045L35.0212 23.9011ZM34.5525 26.9261H32.8482L32.8057 26.1165L33.189 26.0739L34.2969 22.9639H35.8732L36.981 26.1592L37.3644 26.2018L37.3218 26.9686H35.4898V26.3296L35.788 26.287L35.6602 25.9888H34.382L34.2969 26.2443L34.6376 26.287L34.5525 26.9261Z" fill="#036799"/>
<path d="M13.7613 53.5547L13.5909 53.3415L12.6535 54.1511L12.824 54.3641C12.9518 54.5345 13.1222 54.6198 13.2926 54.6198C13.463 54.6623 13.6335 54.5772 13.8039 54.4067C13.9743 54.279 14.0169 54.1084 14.0169 53.9807C14.0169 53.8529 13.9317 53.7251 13.7613 53.5547ZM11.7588 55.5571L10.7363 54.3641L11.1198 53.9807L11.418 54.2363L13.1222 52.7025L12.8666 52.3617L13.2926 52.0635L14.3151 53.2137C14.9116 53.8955 14.9542 54.4919 14.4004 54.9606C14.2299 55.0884 14.0595 55.1735 13.8891 55.2588C13.7187 55.3014 13.5483 55.3014 13.3778 55.2588C13.2074 55.2163 13.0796 55.1735 12.9092 55.0884C12.7814 55.0031 12.6535 54.918 12.5257 54.7902L12.2275 54.4494L11.8015 54.8327L12.0997 55.2163L11.7588 55.5571ZM15.6359 56.4092C15.5081 56.2814 15.3803 56.2388 15.2525 56.2814C15.1246 56.2814 14.9968 56.3665 14.8264 56.4943L15.6359 57.1761C15.6785 57.1334 15.6785 57.1334 15.7211 57.0908C15.8915 56.8778 15.8489 56.6222 15.6359 56.4092ZM15.7211 57.943L14.4856 56.8778C14.2725 57.2186 14.3152 57.5594 14.6134 57.8151C14.6986 57.9004 14.8264 57.943 14.9116 57.9855C15.0394 58.0281 15.1246 58.0281 15.1672 58.0281H15.2525V58.5394H15.2098C15.1672 58.5394 15.1246 58.5394 15.0394 58.5394C14.9542 58.5394 14.869 58.5394 14.7838 58.4969C14.6986 58.4969 14.6134 58.4541 14.4856 58.369C14.3577 58.3263 14.2725 58.2412 14.1447 58.1559C13.8039 57.8577 13.6335 57.5169 13.5909 57.1761C13.5483 56.8353 13.6761 56.4943 13.9743 56.111C14.2725 55.77 14.5708 55.5996 14.9116 55.5571C15.2525 55.5571 15.5933 55.6423 15.8915 55.9406C16.1898 56.1961 16.3602 56.4518 16.3602 56.75C16.4028 57.0482 16.275 57.3039 16.0193 57.6022C15.9767 57.6447 15.8915 57.7298 15.8489 57.7726C15.8063 57.8151 15.7211 57.8577 15.6785 57.8577L15.7211 57.943ZM18.5756 59.4341L18.1069 59.0934L18.3201 58.7098C18.2773 58.582 18.2348 58.4541 18.1069 58.369C17.9366 58.2412 17.8087 58.2412 17.6809 58.2838C17.5532 58.3263 17.3826 58.4969 17.2123 58.7098C16.8714 59.221 16.8714 59.6045 17.2549 59.8602C17.3401 59.9453 17.4679 59.9879 17.5532 59.9879C17.6809 59.9879 17.7662 60.0306 17.8514 59.9879H17.9791L18.0218 60.4993C18.0218 60.4993 17.9791 60.4993 17.9791 60.5418C17.9366 60.5418 17.894 60.5418 17.8087 60.5844C17.7236 60.5844 17.6383 60.5844 17.5532 60.5844C17.4679 60.5844 17.3826 60.5418 17.2549 60.4993C17.1271 60.4567 16.9993 60.3714 16.8714 60.2861C16.488 60.0306 16.275 59.6897 16.2324 59.3489C16.1898 59.0081 16.3176 58.6245 16.5732 58.2838C16.8288 57.943 17.0845 57.7298 17.4254 57.6447C17.7662 57.5594 18.0644 57.6447 18.3626 57.8577C18.4905 57.943 18.6183 58.1134 18.7034 58.369L18.8738 58.2838L19.2573 58.5394L18.5756 59.4341ZM21.004 62.7573L20.1095 62.246L21.1319 60.4567L20.3225 59.9879L19.5556 61.3087L19.8113 61.4791L19.513 61.9052L18.4052 61.2661L18.6609 60.7549L18.9165 60.8826L19.6407 59.6045L19.4277 59.4341L19.726 58.9655L22.2823 60.4567L22.0266 60.9253L21.8136 60.8401L21.0468 62.1608L21.3023 62.3312L21.004 62.7573ZM21.2597 64.2485L21.5154 63.7799C21.6432 63.9075 21.7711 63.9503 21.8988 63.9928C22.1119 64.0781 22.4101 63.9075 22.7935 63.4816L22.7509 61.2661L22.4101 61.0957L22.6231 60.5844L23.5178 60.9253L23.4752 62.8424L24.2847 61.8626L24.0717 61.7348L24.2847 61.2236L25.4776 61.6922L25.2647 62.2034L24.9239 62.1183L23.39 63.8224C22.7509 64.504 22.2397 64.7597 21.7711 64.5893C21.6432 64.5468 21.5154 64.4615 21.4301 64.4189C21.345 64.3764 21.3023 64.2911 21.3023 64.2911L21.2597 64.2485ZM27.0541 62.7573C26.841 62.7148 26.6706 62.7148 26.5855 62.7999C26.4576 62.8852 26.3723 63.013 26.2872 63.226L26.2445 63.3964C26.0741 63.9928 26.2019 64.3336 26.5855 64.4615C26.9688 64.5893 27.267 64.3336 27.4374 63.7371C27.5227 63.4816 27.5227 63.2685 27.4802 63.0981C27.3949 62.9277 27.267 62.7999 27.0541 62.7573ZM28.3747 62.033L28.1192 61.9477L27.7357 61.8626C27.3096 61.7773 27.0114 61.7773 26.7984 61.8201C26.5855 61.9052 26.4149 62.0756 26.3298 62.3312C26.5855 62.1608 26.9263 62.1608 27.3096 62.246C27.7357 62.3738 27.9914 62.5869 28.1618 62.8424C28.3322 63.1407 28.3322 63.4816 28.2043 63.9075C28.0765 64.3336 27.8635 64.6319 27.5227 64.8023C27.1819 64.9728 26.841 65.0154 26.4149 64.8875C25.9463 64.7597 25.648 64.504 25.4776 64.1632C25.3498 63.8224 25.3498 63.3964 25.4776 62.8852C25.5202 62.7573 25.5629 62.6295 25.5629 62.5442C25.5629 62.4591 25.648 62.3312 25.6907 62.2034C25.7333 62.0756 25.8184 61.9477 25.8611 61.8626C25.9037 61.7773 25.989 61.6922 26.0741 61.5644C26.1594 61.4791 26.2445 61.394 26.3298 61.3087C26.4149 61.2661 26.5427 61.1808 26.6706 61.1383C26.7984 61.0957 26.9263 61.0532 27.0966 61.0532C27.267 61.0532 27.4374 61.0532 27.6078 61.0957L27.9914 61.1808L28.0765 61.0104L28.5453 61.1808L28.3747 62.033ZM31.3998 65.8675L30.1216 65.6544L30.1641 65.1005H30.4624L30.7181 63.652L30.2069 63.5668C29.9086 64.9301 29.3973 65.5266 28.7157 65.3987C28.6304 65.3987 28.5453 65.3562 28.46 65.3136L28.5453 64.8023C28.5878 64.8023 28.6304 64.845 28.6304 64.845C28.8435 64.8875 28.9712 64.8023 29.1418 64.5893C29.2694 64.3764 29.3973 64.0354 29.5251 63.5242L29.1418 63.3964L29.2694 62.8424L31.5702 63.226L31.2293 65.2711L31.5275 65.3562L31.3998 65.8675ZM33.0614 65.9527H32.5075L32.55 63.9075L32.2944 63.865L32.3371 63.3112H33.3597L33.3169 64.8023L34.4673 63.3538H35.4471V63.9075L35.1916 63.9503L35.1489 65.4415L35.4471 65.484L35.4046 65.9952L34.1265 65.9527V65.484L34.382 65.4415L34.4248 64.3336L33.0614 65.9527ZM37.5348 65.9101L36.3419 65.9952L36.2567 65.4415L36.555 65.3987L36.4271 63.9503H36.0864V63.3964L37.1515 63.3112L37.2366 64.3336L37.5775 64.1632L37.7479 63.7799H37.6627V63.2685L38.8556 63.1834L38.8982 63.7371L38.387 63.865L38.0462 64.4189L38.6427 65.2711L39.1538 65.2283V65.8248L38.2591 65.9101L38.0462 65.697L37.407 64.845L37.2366 64.9301L37.2793 65.484H37.4923L37.5348 65.9101ZM40.7303 65.484L40.1764 65.6119L39.7078 63.6095L39.4521 63.652L39.3668 63.0981L40.3468 62.8852L40.6876 64.3336L41.4545 62.672L42.3919 62.4591L42.5196 62.9703L42.2641 63.0556L42.6049 64.5468L42.9031 64.504L42.9884 65.0154L41.7527 65.3136L41.6676 64.845L41.9231 64.7171L41.6676 63.6095L40.7303 65.484ZM46.8228 63.6946L45.3741 64.2485L45.1612 63.7371L45.502 63.5668L44.65 61.4365L44.2665 61.5644L44.0961 61.0957L45.4594 60.5418L45.6298 60.9679L45.3741 61.0957L45.7576 61.9904L46.0133 61.7348L46.3541 60.6697L46.2688 60.7122L46.0984 60.2861L47.4192 59.7749L47.6322 60.2861L47.0784 60.5418L46.6524 61.7773L48.0583 62.5869L48.6122 62.3738L48.7826 62.8852L47.76 63.3112L47.4618 63.226L46.2263 62.4591L46.0133 62.7573L46.2263 63.3112L46.6098 63.1834L46.8228 63.6946ZM49.7626 59.8602C49.6773 59.9028 49.592 59.9879 49.5495 60.0732C49.5069 60.1585 49.4643 60.201 49.4643 60.2436C49.4643 60.2861 49.4643 60.3289 49.4643 60.3714L50.0608 61.4365C50.0608 61.4365 50.1034 61.4365 50.1459 61.4365C50.1885 61.4365 50.2312 61.4365 50.3163 61.4365C50.4016 61.4365 50.4867 61.394 50.572 61.3514C50.9554 61.1383 50.9981 60.7549 50.6999 60.201C50.572 59.9453 50.4016 59.8175 50.2738 59.7749C50.1034 59.6897 49.933 59.7324 49.7626 59.8602ZM51.211 63.013L50.1034 63.652L49.8051 63.1834L50.0608 63.013L48.6973 60.5844L48.4418 60.7122L48.1861 60.201L48.9955 59.7324L49.1234 59.8602C49.1234 59.8175 49.1234 59.7749 49.1661 59.7324C49.1661 59.6897 49.2512 59.6045 49.3365 59.4767C49.4216 59.3489 49.5495 59.2638 49.7199 59.1785C50.0181 59.0081 50.3589 58.9655 50.6571 59.0506C50.9554 59.1359 51.211 59.3914 51.3814 59.7324C51.5946 60.1157 51.6797 60.4993 51.6371 60.8401C51.5946 61.1808 51.4242 61.4791 51.0832 61.6495C50.9554 61.7348 50.8277 61.7773 50.6999 61.8201C50.572 61.8626 50.4867 61.8626 50.4442 61.8626H50.3589L50.785 62.6295L51.0406 62.5016L51.211 63.013ZM53.043 58.7098L52.7875 58.8802L53.2562 59.4767L53.5117 59.3063C53.8099 59.0934 53.8526 58.8802 53.6395 58.6245C53.5544 58.4969 53.4691 58.4541 53.384 58.4969C53.2987 58.5394 53.2134 58.6245 53.043 58.7098ZM52.7875 60.5418L52.404 60.1157L52.6171 59.9028L51.7224 58.7524L51.5093 58.8802L51.211 58.4116L52.0206 57.7726L52.5318 58.4542L52.7875 58.2412C53.4691 57.6873 53.9805 57.6447 54.3213 58.0708C54.5342 58.3263 54.577 58.582 54.4917 58.8377C54.4064 59.0934 54.1934 59.3914 53.8526 59.6471L52.7875 60.5418ZM56.0254 58.0281L55.216 58.6673L53.8952 56.963L53.7248 57.0482L53.4691 56.6647L54.4064 55.9406L54.7473 56.3665L54.577 56.5371L55.5142 57.7298L55.7697 57.5594L56.0254 58.0281ZM55.4289 55.6849L55.216 55.8978L54.8325 55.5145L55.7272 54.5772L57.5592 55.4718L56.5793 53.6825L57.474 52.7451L57.8574 53.1286L57.687 53.3415L58.8374 54.3641L59.0503 54.1511L59.3911 54.5345L58.7521 55.2163L57.7296 54.279L57.4313 54.0233L58.2835 55.6849L57.8148 56.1961L56.068 55.4718L56.1532 55.5145L56.9201 56.3239L57.0905 56.1535L57.4313 56.5371L56.6644 57.3039L56.2385 56.963L56.4089 56.75L55.4289 55.6849Z" fill="#001848"/>
<path fill-rule="evenodd" clip-rule="evenodd" d="M10.0122 49.7197L10.3956 50.5719L11.3329 50.6997L10.6086 51.3388L10.8217 52.2335L10.0122 51.8074L9.16006 52.2335L9.37308 51.3388L8.69141 50.6997L9.58612 50.5719L10.0122 49.7197Z" fill="#E13A4A"/>
<path fill-rule="evenodd" clip-rule="evenodd" d="M59.647 49.7197L60.073 50.5719L61.0103 50.6997L60.2862 51.3388L60.4991 52.2335L59.647 51.8074L58.8375 52.2335L59.0505 51.3388L58.3262 50.6997L59.2636 50.5719L59.647 49.7197Z" fill="#E13A4A"/>
<path d="M7.41308 48.4845C7.5409 48.5698 7.75392 48.5698 7.96694 48.4845C8.22257 48.3994 8.35038 48.2715 8.39299 48.0584C8.4356 47.888 8.39299 47.6323 8.26518 47.2915L6.98703 47.8029C7.11484 48.1437 7.24266 48.3566 7.41308 48.4845ZM6.90182 45.8856C6.68879 45.9707 6.51838 46.0986 6.51838 46.269C6.47577 46.4395 6.56099 46.695 6.68879 47.0358L7.96694 46.5247C7.83912 46.1839 7.66871 45.9707 7.5409 45.8856C7.37047 45.8003 7.15745 45.8003 6.90182 45.8856ZM9.03207 45.5874L9.71375 47.249L9.20249 47.5047L8.98946 47.0358L8.77644 47.1211C9.2451 48.3141 9.07468 49.081 8.30779 49.3792C7.92434 49.5496 7.58349 49.507 7.28527 49.2514C6.98703 48.9957 6.7314 48.6123 6.51838 48.0158L6.30536 48.1011L6.43316 48.527L5.96451 48.6549L5.36803 47.1211L5.83669 46.9507L6.00712 47.3341L6.22014 47.249C6.09232 46.9507 6.04973 46.6951 5.96451 46.4821C5.9219 46.269 5.87929 46.056 5.9219 45.8431C5.9219 45.6299 6.00712 45.4595 6.09232 45.3317C6.22014 45.2039 6.34795 45.076 6.56099 44.9909C7.37047 44.6927 8.00955 45.1187 8.4782 46.3117L8.69123 46.2264L8.52081 45.7152L9.03207 45.5874ZM4.94199 41.4546L5.1124 42.1364L4.77157 42.2642L5.0272 43.2868L5.9219 43.0736L5.58106 41.5399L6.22014 41.412L6.56099 42.9458L7.49829 42.7328L7.24266 41.5824L6.81662 41.6252L6.68879 40.986L7.75392 40.773L8.4782 43.8832L7.88173 44.0536L7.75392 43.6276L5.19762 44.224L5.28284 44.6927L4.72897 44.7778L4.21771 42.4772L4.00468 41.7103L4.94199 41.4546ZM4.13249 37.8759L4.21771 38.8557C5.32543 38.8132 6.17753 38.8983 6.77401 39.154L6.64618 37.7053L4.13249 37.8759ZM8.39299 39.4948L8.4356 40.1765L6.81662 40.3469V39.9634C6.51838 39.8357 6.17753 39.7505 5.7941 39.7079C5.36803 39.6226 4.85677 39.6226 4.26031 39.6226V40.134H3.62123L3.3656 36.5551L4.00468 36.5126L4.08988 36.9385L6.60358 36.7255L6.51838 36.2143L8.13736 36.1716L8.17997 36.8959L7.28527 37.0663L7.45568 39.4097L8.39299 39.4948ZM4.60114 32.3798L4.55855 33.0616H4.1751L4.08988 34.1267L4.9846 34.2118L5.1124 32.6355L5.75149 32.678L5.62366 34.2545L6.56099 34.3396L6.64618 33.1467L6.22014 33.0616L6.30536 32.4223L7.37047 32.5502L7.11484 35.7455H6.47577V35.2769L3.87686 35.0639L3.79166 35.5326L3.23779 35.4473L3.40821 33.1041V32.3372L4.60114 32.3798ZM4.55855 29.866L4.51594 30.1643L5.9219 30.42L5.96451 30.1217C6.00712 29.9088 5.96451 29.6956 5.87929 29.5252C5.7941 29.3549 5.62366 29.2696 5.36803 29.227C5.1124 29.1845 4.94199 29.227 4.81418 29.3123C4.68636 29.4401 4.60114 29.6105 4.55855 29.866ZM7.79653 30.2496L7.45568 31.9964L6.85921 31.9537L6.90182 31.5276L4.34551 31.059L4.21771 31.4851L3.66384 31.3572L3.96208 29.6531C4.1751 28.5454 4.68636 28.1193 5.49586 28.2897C5.75149 28.3323 5.9219 28.4176 6.09232 28.5454C6.26275 28.6731 6.39055 28.8009 6.47577 28.9713C6.56099 29.1419 6.60358 29.3123 6.64618 29.5252C6.68879 29.6956 6.64618 29.9088 6.64618 30.0792L6.56099 30.5478L7.20005 30.6756L7.32786 30.1217L7.79653 30.2496ZM5.66627 25.9038L6.94442 26.9264L7.28527 25.9464L5.66627 25.9038ZM8.4782 27.5229L7.96694 28.9288L7.37047 28.7584L7.49829 28.3749L4.81418 26.2021L5.19762 25.0944L8.69123 25.0517L8.86164 24.6683L9.41551 24.8813L8.86164 26.415L8.39299 26.2446L8.4782 25.9038L7.92434 25.9464L7.45568 27.3097L7.88173 27.6507L8.05216 27.3097L8.4782 27.5229ZM7.37047 21.6008L7.20005 21.9842L9.50073 23.1346L10.1824 21.7712L7.88173 20.6208L7.6261 21.0044L7.11484 20.7061L7.88173 19.1296L8.39299 19.3853L8.22257 19.7687L10.5232 20.9191L10.7789 20.4079L12.1848 21.2173L11.844 21.8989L10.9493 21.5581L9.45812 24.5405L8.94686 24.4126L9.11727 23.9866L6.77401 22.7936L6.51838 23.1771L6.00712 22.8789L6.77401 21.3026L7.37047 21.6008ZM14.4003 17.042L13.3352 18.3628L12.8665 18.022L13.1221 17.6384L11.8866 16.6586L11.5884 16.4029L12.4405 19.3L12.4831 19.4279L11.7162 20.4504L11.2049 20.1096L11.4606 19.7261L9.41551 18.1071L9.11727 18.4481L8.69123 18.0645L9.75636 16.7438L10.225 17.0846L10.012 17.4255L11.2901 18.4053L11.5458 18.661L10.6937 15.7639L10.6084 15.6361L11.3753 14.6561L11.844 14.997L11.5884 15.3378L13.676 16.9994L13.9742 16.6586L14.4003 17.042ZM13.463 13.6762C13.463 13.804 13.5056 13.9744 13.6334 14.1023C13.7612 14.2301 13.889 14.3153 14.0595 14.3153C14.2299 14.3153 14.3577 14.2727 14.4429 14.1875L14.9968 13.6762L14.1447 12.7815L13.6334 13.2502C13.5482 13.378 13.463 13.5058 13.463 13.6762ZM15.3802 16.1047L14.6985 16.7438L14.2299 16.3177L14.6133 15.9343L14.4003 14.997C14.1447 15.0822 13.9316 15.1248 13.676 15.0396C13.4204 14.997 13.2074 14.8692 13.0369 14.6561C12.7387 14.3579 12.6535 14.0597 12.6961 13.7188C12.7387 13.378 12.9091 13.0797 13.25 12.7815L14.7411 11.3756L15.1672 11.8442L14.8689 12.1424L16.6584 14.0597L16.9992 13.7614L17.3826 14.2301L16.1471 15.3804L15.7637 15.0396L16.0619 14.6987L15.5506 14.1449L15.082 14.5709L15.3376 15.7639L15.3802 16.1047ZM19.1294 9.20269L19.4277 10.8217L20.3224 10.3104L19.1294 9.20269ZM20.1946 12.2276L18.8738 12.9945L18.533 12.4833L18.8738 12.2276L18.32 8.86186L19.3424 8.26538L22.0265 10.4808L22.3675 10.3104L22.623 10.8217L21.2171 11.6312L20.9614 11.2051L21.2171 10.9921L20.791 10.6513L19.5555 11.3756L19.6406 11.8868L19.9816 11.7164L20.1946 12.2276ZM24.1142 6.77421L23.1769 7.15766C23.5603 8.18017 23.7309 9.03227 23.6881 9.67136L25.0515 9.11749L24.1142 6.77421ZM23.8585 11.3329L23.2195 11.5886L22.5805 10.0974L22.964 9.96958C23.0065 9.62875 22.964 9.2879 22.9213 8.90447C22.8361 8.52101 22.7083 8.00975 22.4952 7.45588L22.0265 7.58371L21.8136 6.98723L25.1368 5.66647L25.3497 6.26295L24.9664 6.39077L25.9036 8.73403L26.4148 8.52101L26.9262 10.0548L26.2444 10.3104L25.8184 9.45832L23.6456 10.3104L23.8585 11.3329ZM28.2043 5.58127L28.0339 7.20025L29.0564 6.94462L28.2043 5.58127ZM28.3321 8.77664L26.8409 9.11749L26.7131 8.52101L27.0966 8.39321L27.5227 4.9848L28.6729 4.72917L30.5476 7.66892L30.931 7.58371L31.0162 8.18017L29.4825 8.52101L29.3547 8.05236L29.6529 7.92455L29.3121 7.45588L27.906 7.79673L27.8209 8.30799L28.2043 8.26538L28.3321 8.77664ZM33.0614 8.05236L31.3145 8.18017L31.2292 7.58371L31.6553 7.49849L31.4423 4.8996H30.9737V4.30312L35.1488 4.00488L35.1916 4.60136L34.7655 4.68656L34.9785 7.28547H35.4471V7.92455L33.7004 8.05236L33.6578 7.37068L34.0837 7.28547L33.8708 4.77177L32.3796 4.8996L32.5925 7.45588H33.0614V8.05236ZM36.5549 5.32564L35.9159 5.28303L36.0436 4.0901L36.8104 4.1753L38.813 4.34573H39.5799L39.5373 5.53866L38.8981 5.49606V4.9848L38.2591 4.94219L38.0461 7.49849L38.5148 7.58371L38.4295 8.18017L36.64 8.00975V7.37068H37.1087L37.3218 4.85699L36.6828 4.81438L36.5549 5.32564ZM43.7552 9.2879L42.0936 8.90447L42.1787 8.3506L42.6048 8.4358L42.9456 6.90203L43.0734 6.51858L40.8154 8.52101L40.7303 8.60623L39.4946 8.30799L39.6224 7.66892L40.0485 7.75412L40.645 5.19782L40.2189 5.07001L40.3893 4.51614L42.0509 4.8996L41.923 5.45345L41.4971 5.41086L41.1136 6.98723L40.9858 7.32808L43.2438 5.32564L43.3291 5.24043L44.5646 5.53866L44.4368 6.09253L44.0107 6.04992L43.4142 8.64884L43.8403 8.77664L43.7552 9.2879ZM46.1837 7.83934L46.8227 8.09497C46.9505 8.13758 47.0356 8.13758 47.1635 8.09497C47.2913 8.05236 47.3766 7.92455 47.4617 7.75412C47.5045 7.58371 47.5045 7.45588 47.4617 7.37068C47.3766 7.28547 47.2488 7.20025 47.0784 7.11505L46.6097 6.90203L46.1837 7.83934ZM46.6523 8.69143L45.9705 8.39321L45.5872 9.37312L46.0984 9.58614C46.567 9.75656 46.8652 9.67136 47.0356 9.33051C47.0784 9.1601 47.1209 9.03227 47.0356 8.94706C46.9505 8.81925 46.8227 8.73403 46.6523 8.69143ZM45.8854 10.1826L44.1811 9.50093L44.3942 8.90447L44.8203 9.03227L45.8001 6.60379L45.3741 6.39077L45.6297 5.87951L47.2913 6.56119C47.76 6.7316 48.0582 6.98723 48.186 7.24286C48.3139 7.49849 48.3564 7.75412 48.2286 8.05236C48.1008 8.3506 47.8878 8.52101 47.5045 8.60623C47.8452 8.94706 47.9304 9.2879 47.76 9.67136C47.6321 10.0122 47.3766 10.2252 47.0784 10.353C46.8227 10.4382 46.3966 10.3956 45.8854 10.1826ZM49.2937 11.9294L47.8027 10.9921L48.1008 10.4382L48.4843 10.6513L49.8902 8.4358L49.5068 8.18017L49.8476 7.71151L51.3388 8.64884L50.998 9.1601L50.6145 8.94706L50.1033 9.75655L51.4667 10.6087L51.9779 9.79916L51.5945 9.54353L51.9779 9.03227L53.469 9.96958L53.1283 10.4808L52.7447 10.2678L51.3388 12.4833L51.7223 12.7389L51.3814 13.2076L49.9329 12.2702L50.2312 11.7164L50.6145 11.9294L51.1259 11.1199L49.7625 10.2678L49.2512 11.0773L49.6347 11.3329L49.2937 11.9294ZM55.4714 14.1023C55.7271 13.804 55.8549 13.5058 55.8549 13.2076C55.8549 12.9093 55.7271 12.6537 55.4289 12.4407C55.1732 12.2276 54.8749 12.0998 54.6194 12.1851C54.3212 12.2276 54.0655 12.3981 53.8098 12.7389C53.5543 13.0797 53.3839 13.378 53.3412 13.6762C53.2986 13.9744 53.4265 14.2727 53.6822 14.4857C53.9377 14.6987 54.2359 14.7839 54.5342 14.7413C54.9177 14.6135 55.2159 14.4005 55.4714 14.1023ZM56.1957 14.6987C55.7697 15.1674 55.301 15.423 54.7898 15.5082C54.2786 15.5508 53.7673 15.3804 53.2561 14.9544C52.7875 14.5283 52.5318 14.0597 52.4892 13.5484C52.4892 13.0371 52.6596 12.5259 53.0857 12.0572C53.469 11.5886 53.9377 11.3329 54.449 11.2903C54.9602 11.2477 55.4289 11.4608 55.9402 11.8442C56.4514 12.2702 56.7071 12.7389 56.7497 13.2502C56.7922 13.7614 56.6218 14.2301 56.1957 14.6987ZM56.3661 17.9792L55.2159 16.616L55.6845 16.1899L55.9828 16.4881L57.9852 14.8266L57.7295 14.4431L58.1983 14.1023L59.6042 15.7639L60.1581 16.3177L59.1781 17.1698L58.7095 16.616L59.1356 16.2325L58.5391 15.5508L56.5793 17.2124L56.8775 17.6384L56.3661 17.9792ZM60.6268 20.493C60.9676 20.28 61.1805 20.0244 61.2658 19.7261C61.3509 19.4279 61.3083 19.1722 61.0954 18.874C60.925 18.5757 60.6693 18.4053 60.3711 18.3628C60.0728 18.3202 59.7746 18.4053 59.4338 18.6185C59.0928 18.8314 58.8373 19.0871 58.7095 19.3853C58.5816 19.6836 58.6242 19.9818 58.7948 20.28C58.9652 20.5783 59.2207 20.7487 59.5616 20.7487C59.9024 20.8338 60.2432 20.7487 60.6268 20.493ZM61.1379 21.3026C60.6268 21.6434 60.0728 21.7712 59.5616 21.6434C59.0503 21.5581 58.5816 21.2173 58.2409 20.6634C57.9001 20.1096 57.8148 19.5983 57.9426 19.0871C58.0705 18.5757 58.4112 18.1498 58.9652 17.8088C59.4764 17.4681 59.9876 17.3828 60.4564 17.4681C60.925 17.5959 61.3509 17.8941 61.6919 18.4481C62.0327 19.0018 62.1605 19.5132 62.0752 20.0244C61.9474 20.5783 61.6491 21.0044 61.1379 21.3026ZM64.035 24.6258L63.9925 24.4979L63.4813 25.2222L64.2907 25.4352L64.2482 25.3074L64.8447 25.0944L65.4837 26.6707L64.8872 26.8838L64.6315 26.3299L63.0978 25.9464L62.2031 27.3097L62.4162 27.9062L61.8197 28.0768L61.1805 26.415L61.7344 26.2021L61.777 26.3299L62.2883 25.6056L61.4787 25.4352L61.5215 25.563L60.925 25.776L60.2858 24.157L60.8397 23.9015L61.0954 24.4979L62.6291 24.8813L63.5239 23.4754L63.3109 22.8789L63.8646 22.7085L64.5037 24.3275L64.035 24.6258ZM64.4186 31.0164C64.8019 30.9312 65.1002 30.8035 65.3133 30.5478C65.4837 30.3349 65.5688 30.0366 65.4837 29.6956C65.3984 29.3549 65.2707 29.0992 65.015 28.9713C64.7594 28.8437 64.4186 28.8009 64.035 28.8862C63.609 28.9713 63.3109 29.0992 63.0978 29.3549C62.8848 29.5678 62.7995 29.866 62.8421 30.207C62.9274 30.5478 63.0978 30.8035 63.3535 30.9312C63.6517 31.059 63.9925 31.1017 64.4186 31.0164ZM64.589 31.9537C63.9925 32.0816 63.4386 31.9964 62.9699 31.6982C62.5013 31.4 62.2456 30.9312 62.1179 30.3349C61.9901 29.6956 62.1179 29.1845 62.4162 28.7584C62.7144 28.3323 63.1831 28.0768 63.8221 27.9489C64.4186 27.8211 64.9298 27.9062 65.3558 28.2045C65.7819 28.5027 66.0376 28.9288 66.1653 29.5678C66.2931 30.207 66.208 30.7608 65.9098 31.1443C65.6541 31.5704 65.1854 31.8686 64.589 31.9537ZM62.757 34.5527L62.7144 32.8059L63.3535 32.7633L63.396 33.1892L65.9949 33.1041V32.6355L66.5914 32.678L66.6341 34.3396H66.0802L66.0376 33.9988L64.9298 34.0414L65.1002 34.4249L66.0802 35.1918V35.0639H66.6341L66.6766 36.683H66.0376L65.9949 36.0012L64.8447 35.0639L63.396 36.2569V36.9385L62.757 36.8959L62.7144 35.6604L62.9274 35.4047L64.2482 34.3822L64.035 34.0414L63.3535 34.0839V34.5527H62.757ZM62.5866 38.9836L62.7995 37.2367L63.4386 37.2794V37.7481L66.0376 38.0463L66.1227 37.6202L66.6766 37.7481L66.4635 39.4097L65.9098 39.3671V39.0261L64.8019 38.8983L64.9298 39.3244L65.7819 40.2191L65.8245 40.0913L66.3784 40.1765L66.1653 41.7956L65.5688 41.7103L65.6115 41.0287L64.6315 39.9634L63.0552 40.9434L62.9699 41.6252L62.3735 41.4973L62.5013 40.2617L62.757 40.0061L64.2054 39.1965L64.035 38.8132L63.3535 38.7279L63.2682 39.154L62.5866 38.9836ZM64.1203 45.417L64.2907 44.7352L64.6743 44.8205L64.9298 43.798L64.035 43.5423L63.6517 45.0335L63.0127 44.8631L63.396 43.3719L62.4587 43.1162L62.1605 44.2666L62.5439 44.437L62.3309 45.076L61.3083 44.7778L62.1179 41.6677L62.7144 41.7956L62.6291 42.2215L65.1429 42.9032L65.3133 42.4772L65.8672 42.6476L65.2707 44.9056L65.1002 45.6725L64.1203 45.417ZM63.5239 47.5472C63.4813 47.4194 63.3535 47.2915 63.1831 47.2064C63.0127 47.1211 62.8421 47.1211 62.7144 47.1637C62.5439 47.2064 62.4587 47.2915 62.4162 47.4194L62.1179 48.1011L63.2256 48.6123L63.5239 47.9733C63.5664 47.8454 63.5664 47.7176 63.5239 47.5472ZM60.8397 46.0135L61.2232 45.1613L61.8197 45.3743L61.6066 45.8856L62.1605 46.6525C62.3309 46.4821 62.5439 46.3543 62.7995 46.3117C63.0552 46.269 63.3107 46.3117 63.5664 46.3968C63.9499 46.5672 64.1629 46.8229 64.2482 47.1211C64.3333 47.4619 64.2907 47.8029 64.1203 48.1862L63.3109 50.0182L62.757 49.7627L62.8848 49.3792L60.4989 48.3141L60.2858 48.6976L59.7746 48.4419L60.4564 46.9082L60.9676 47.0786L60.7972 47.5047L61.4787 47.8029L61.7344 47.2064L60.9676 46.269L60.8397 46.0135Z" fill="#001848"/>
</g>
</g>
<defs>
<clipPath id="clip0_38_4518">
<rect width="70" height="70" fill="white"/>
</clipPath>
</defs>
</svg>
