<svg width="48" height="48" viewBox="0 0 48 48" fill="none" xmlns="http://www.w3.org/2000/svg">
<rect width="48" height="48" rx="24" fill="#F96600"/>
<path d="M22.8499 28.8013C21.0279 28.6112 19.3852 28.1605 17.9797 27.0626C17.8046 26.9259 17.6252 26.7934 17.465 26.6354C16.8498 26.0437 16.7878 25.3666 17.2748 24.6702C17.6914 24.0721 18.3899 23.9119 19.1182 24.2558C19.2581 24.3266 19.3924 24.408 19.5198 24.4993C20.8223 25.3845 22.3576 25.8646 23.9323 25.879C25.5071 25.8935 27.0509 25.4417 28.3694 24.5805C28.6213 24.3763 28.912 24.2252 29.2238 24.1362C29.5138 24.0505 29.8241 24.0648 30.105 24.1767C30.3859 24.2887 30.621 24.4918 30.7724 24.7535C31.1569 25.3815 31.1527 25.9924 30.6785 26.4794C29.9516 27.2145 29.0732 27.7824 28.1045 28.1434C27.1614 28.4822 26.1799 28.7025 25.1824 28.7992C25.332 28.9636 25.396 29.0427 25.4986 29.1367C26.8507 30.4973 28.2092 31.8516 29.557 33.2144C29.7718 33.4096 29.9174 33.6691 29.9721 33.9541C30.0268 34.2391 29.9876 34.5342 29.8604 34.795C29.7308 35.0809 29.5199 35.3223 29.254 35.4891C28.9881 35.6558 28.6789 35.7406 28.3651 35.7327C27.9981 35.6966 27.6584 35.5225 27.4146 35.2457C26.3936 34.2183 25.3533 33.2101 24.3537 32.1634C24.0632 31.8601 23.9265 31.9178 23.6659 32.1805C22.6384 33.2485 21.5939 34.2802 20.5451 35.3141C20.3504 35.5299 20.0895 35.6749 19.8033 35.7263C19.5172 35.7778 19.2221 35.7327 18.9644 35.5982C18.6852 35.4678 18.4496 35.2595 18.2859 34.9984C18.1222 34.7374 18.0374 34.4346 18.0417 34.1264C18.0725 33.7456 18.2502 33.3917 18.5372 33.1396C19.8787 31.8024 21.2158 30.4646 22.5487 29.126C22.6384 29.0341 22.7239 28.938 22.8499 28.8013Z" fill="white"/>
<path d="M23.9584 24.1453C22.7805 24.1384 21.6312 23.7819 20.6562 23.1209C19.6811 22.4599 18.9244 21.5242 18.4819 20.4326C18.0394 19.3409 17.9311 18.1424 18.1707 16.9891C18.4103 15.8358 18.987 14.7796 19.8277 13.9545C20.6684 13.1294 21.7352 12.5726 22.8928 12.3546C24.0505 12.1367 25.2467 12.2674 26.3299 12.7303C27.4131 13.1932 28.3344 13.9673 28.977 14.9546C29.6196 15.9418 29.9545 17.0976 29.9393 18.2755C29.9179 19.8449 29.2774 21.3422 28.1573 22.4416C27.0371 23.541 25.5279 24.1533 23.9584 24.1453ZM26.9126 18.1922C26.9109 17.6164 26.7384 17.0541 26.4169 16.5764C26.0954 16.0988 25.6395 15.7272 25.1067 15.5089C24.574 15.2905 23.9884 15.2351 23.4242 15.3497C22.8599 15.4643 22.3424 15.7438 21.9371 16.1527C21.5318 16.5616 21.2569 17.0816 21.1472 17.6468C21.0376 18.2121 21.0982 18.7971 21.3212 19.3279C21.5443 19.8587 21.9199 20.3114 22.4003 20.6286C22.8808 20.9458 23.4446 21.1134 24.0204 21.11C24.4021 21.1092 24.7799 21.0329 25.1321 20.8857C25.4843 20.7384 25.8039 20.5231 26.0727 20.252C26.3414 19.9808 26.5539 19.6593 26.6981 19.3058C26.8422 18.9524 26.9151 18.5739 26.9126 18.1922Z" fill="white"/>
</svg>
