<svg width="46" height="64" viewBox="0 0 46 64" fill="none" xmlns="http://www.w3.org/2000/svg">
<path d="M22.7637 0C10.2117 0 0 10.3978 0 23.1783C0 39.0393 20.3713 62.3242 21.2386 63.3077C22.0532 64.2316 23.4756 64.2299 24.2888 63.3077C25.1561 62.3242 45.5273 39.0393 45.5273 23.1783C45.5271 10.3978 35.3155 0 22.7637 0ZM22.7637 34.8399C16.4485 34.8399 11.3108 29.6085 11.3108 23.1783C11.3108 16.748 16.4486 11.5168 22.7637 11.5168C29.0788 11.5168 34.2164 16.7481 34.2164 23.1784C34.2164 29.6087 29.0788 34.8399 22.7637 34.8399Z" fill="#BE052E"/>
</svg>
