<svg width="48" height="48" viewBox="0 0 48 48" fill="none" xmlns="http://www.w3.org/2000/svg">
<rect width="48" height="48" rx="24" fill="#2B5DDE"/>
<path d="M35.4131 27.9194C34.8688 27.2864 34.2502 26.7191 33.652 26.1704C33.4393 25.9753 33.2194 25.7736 33.0074 25.573C32.3987 24.9965 32.3766 24.7799 32.8585 24.125C33.1919 23.6736 33.5454 23.2216 33.8872 22.7845C34.1973 22.3879 34.518 21.9778 34.8253 21.5663L34.8884 21.4817C35.4758 20.6943 36.0833 19.8801 36.4066 18.8979C36.4905 18.6388 36.5787 18.2575 36.3771 17.9386C36.1757 17.62 35.785 17.5228 35.5085 17.4774C35.3718 17.4549 35.236 17.4519 35.1101 17.4519L31.2633 17.4492L31.2315 17.4489C30.6499 17.4489 30.2579 17.7145 30.0333 18.2608C29.8189 18.7828 29.5834 19.3386 29.3146 19.8672C28.7797 20.9196 28.1004 22.1318 27.1174 23.1428L27.0758 23.1858C26.9597 23.3067 26.8282 23.4435 26.7321 23.4435C26.7173 23.4435 26.7013 23.4408 26.6831 23.4353C26.4795 23.3584 26.3429 22.8809 26.3491 22.6587C26.3491 22.6557 26.3492 22.6526 26.3492 22.6495L26.3465 18.3423C26.3465 18.3273 26.3454 18.3125 26.3434 18.2977C26.2456 17.5975 26.0288 17.1617 25.2098 17.0063C25.188 17.0021 25.1658 17 25.1437 17H21.1438C20.4921 17 20.1331 17.2566 19.7955 17.6407C19.7044 17.7433 19.5148 17.9571 19.6088 18.2163C19.7042 18.4795 20.0137 18.5357 20.1146 18.554C20.615 18.6463 20.897 18.9428 20.9769 19.4609C21.1164 20.3606 21.1335 21.321 21.0309 22.4831C21.0023 22.8061 20.9456 23.0556 20.8523 23.2687C20.8306 23.3185 20.7538 23.4808 20.6754 23.4809C20.6505 23.4809 20.5784 23.4714 20.4472 23.3838C20.1369 23.1779 19.9099 22.884 19.6452 22.521C18.7449 21.2883 17.9893 19.9303 17.3348 18.3685C17.0921 17.7936 16.6389 17.4717 16.0579 17.4623C15.4196 17.4529 14.8409 17.4483 14.2889 17.4483C13.6859 17.4483 13.1268 17.4537 12.5808 17.4647C12.1134 17.4727 11.7901 17.6085 11.62 17.8685C11.4496 18.1287 11.4607 18.4705 11.653 18.8842C13.1921 22.199 14.5875 24.6092 16.1778 26.6993C17.2921 28.1618 18.4098 29.1742 19.6948 29.8849C21.0486 30.6352 22.5658 31 24.333 31C24.5333 31 24.7404 30.9953 24.9493 30.9858C25.9761 30.9373 26.357 30.5773 26.4052 29.6087C26.4281 29.1137 26.484 28.5946 26.7352 28.1518C26.8937 27.8729 27.0415 27.8729 27.0901 27.8729C27.1837 27.8729 27.2997 27.9146 27.4243 27.9928C27.6478 28.1342 27.8395 28.3235 27.9966 28.4889C28.1445 28.646 28.2907 28.8048 28.4371 28.9636C28.7529 29.3063 29.0795 29.6606 29.4207 29.9967C30.1675 30.7327 30.9901 31.0565 31.935 30.9862H35.4618C35.4693 30.9862 35.4769 30.9859 35.4844 30.9855C35.8358 30.963 36.1402 30.7741 36.3194 30.4673C36.5415 30.0873 36.537 29.6024 36.3075 29.17C36.047 28.6811 35.7091 28.2634 35.4131 27.9194Z" fill="white"/>
</svg>
