<svg width="48" height="48" viewBox="0 0 48 48" fill="none" xmlns="http://www.w3.org/2000/svg">
<rect width="48" height="48" rx="24" fill="#32B767"/>
<path d="M24 13C17.9225 13 13 17.9225 13 24C13 26.42 13.77 28.6475 15.09 30.4625L13.5775 34.45L17.95 33.185C19.6825 34.34 21.7725 35 24 35C30.0775 35 35 30.0775 35 24C35 17.9225 30.0775 13 24 13ZM29.8575 28.565L28.675 29.72C27.4375 30.9575 24.165 29.61 21.2775 26.695C18.39 23.8075 17.0975 20.535 18.2525 19.325L19.435 18.1425C19.875 17.7025 20.6175 17.7025 21.085 18.1425L22.8175 19.875C23.4225 20.48 23.175 21.525 22.3775 21.7725C21.8275 21.965 21.4425 22.57 21.635 23.12C21.9375 24.4125 23.615 26.0075 24.8525 26.31C25.4025 26.4475 26.035 26.1175 26.2 25.5675C26.4475 24.77 27.4925 24.5225 28.0975 25.1275L29.83 26.86C30.27 27.3275 30.27 28.07 29.8575 28.565Z" fill="white"/>
</svg>
